<mxfile host="65bd71144e">
    <diagram id="xGux4zI1GdcD7ihb_KGK" name="第 1 页">
        <mxGraphModel dx="1017" dy="799" grid="1" gridSize="10" guides="1" tooltips="1" connect="1" arrows="1" fold="1" page="1" pageScale="1" pageWidth="827" pageHeight="1169" math="0" shadow="0">
            <root>
                <mxCell id="0"/>
                <mxCell id="1" parent="0"/>
                <mxCell id="2" value="" style="shape=image;verticalLabelPosition=bottom;labelBackgroundColor=#ffffff;verticalAlign=top;aspect=fixed;imageAspect=0;image=data:image/png,iVBORw0KGgoAAAANSUhEUgAAAtcAAAKjCAYAAADWPSOKAAAAAXNSR0IArs4c6QAAAARnQU1BAACxjwv8YQUAAAAJcEhZcwAAFiUAABYlAUlSJPAAALFHSURBVHhe7N0LfEx3wv/xL5KoEEHilrikZCnrskQ1WNWqpV3iKfqoouvS1uVf+lB6Wbou3WVtS3UbnqJdqq3r0u5W26es1apF2o1q6VI2NHEJKlERQi70f24jk2RCxElo9vN+veY15/xmzpwz55yZ+Z7f/M7vlGvSNvoHAQAAALhu5Z17AAAAANeJcA0AAAC4hHANAAAAuIRwDQAAALiEcA0AAAC4hHANAAAAuIRwDQAAALiEcA0AAAC4hHANAAAAuIRwDQAAALiEcA0AAAC4hHANAAAAuIRwDQAofTUytfSlJC3q4ozjhhn+eJL+/nSmmjvjAK5PuSZto39whsum/tM0u1sD6fB6TfztKqewmKLHaerwVgpyRm0Z2rl4jJbFOaMAXBdcY4Ke+Hk7NaxWWf6XqwTO6av3H9JLKc5oGRUW8YJ+c+dtCsw6oe0bH9OCsvB+A41g/eLXiq5WXimftVCnV/ydB1D6srV0/i5jW0hnvmihPnMq6ojzSEkaNOyE/l/H4woNPG+M1deaQeGabD8E/OhRc40yJXLQZI1/caFG9XcK8KMXGPGy5vTqosga3sH6Ryh0gn7Tc4Vev2esU1A0dzYxgrX5vm+prdaN77cLf9QuacavE5ww11wPEqxvMH8NmdtEB7KzVbVtghY9dMkpLznDxydoSrdvnWANlD2E62sR97KmjxiuidZtkXaedcpx04ho1Fjhwf7GzwXKhl/okTaNrFCdcXiz/rT8MQ15o7dz+5HVWtdopMiaxgFCBWe8iD7d/40yzLxz4YS+OvAXu/BHLPqhY4pplC6dbqhXXy2dWlJcRUKQRiyJ1Bmlq3GPY5pRzykvEecU09r84AYp5YuWmjw2Wk2ptUYZQ7gGcBO7TTWDjbvsg9r48Rx9mnXCLv4Pkpz4tEa/aRxMrCwDTUICMzWu62FVVA3FrQjV4gynHDfckc2hWranmuR/WDFDMlVi+frn51XPrP04VVdz51TWmlN2MVCWEK4B3LxCa6umeZ95Vskl/281Slj0g9+pTaAxkBCuyf+wy3DzeHlpmPVPQsXm32lcidZeG9L9tcYZBMqaEjyh8UGNXdRDDQ+v17ObgjV+QLRqVzQ+T1+v0ozXU3TfhGHqUt/4ls04pI9emaaNB53JLIFq2GeEendspobBzh/8l7J16tgubVy5RJ/v813dUan9YA3sE62fVA+Un3PYkJMt+Zkvke+Exm6/Wax760tJG4crdrVT6Ih8fJ5GtQ70+ViuaA16aYTaVCnCCY2BzdT+4cHq1qquajhvJyftmL7Y9Lbe+b+9yrGLrptf017qO+Aeta0bbL//QtdZY+P9P228f2Nhzu7Sn557WXu9Hw43tt0kY9sZD5/6/GXNfH2XXe6cHHpiy2TN/TxKDw66Vy1rOes645h2rn9bq3y+n2vcns580r9apOlL0tR+2GDd17yugsxJL2Xo6O51Wjp/vewKD892sEauyOf2rB6te4fEqG1jY9sY+6cpJyNF/975kd7/8yadcKlmrULD6bq9awc1CAlSgJ9ddj51v/ZtWaavv9lgF3i7JUbhnWLUoklT1QgOkNWS4FKWzn+fqK83zNC+pP3W0yy3LVK/+1uqUs5+/ePlIUossAHCFPHQWv28oZT25Uyt+2idU/4jEPo7vdqrlQKN/XTBmue03Sku4IrPG6vnh/5CDfM/5kyjbxZr9Fc1NLbzL9S6jtOuO/uckna8rVnffCDfu0AjdfjJcPVucZvCggLsaoqL53QyKV5rt8/RduN7x9ThjhUa1ayyPXIlyX/TkA2xzojB836cUVsRTuAs31P9bv+lukTWl+ejpqxzSv7mb3rry8Xak+cA5X49+cBwtS5nfAf8+S+q3HaY7mvmTGfsa2lHt+vNj+co3rWDmhwtio1XlxrVtHPJbRqw0SkuoIY+vLWJGp/Zr3vO+GtpnVtVz++Szpzaqz5nsvRMSAt1N78Msr/TmuSDmpxv+Zr7hWpGSH01r2R8oMsZBRczlZJ+WP97OkXLCvm1i6lYV6Or1VK9WyqpovXdmaMz545pw+ljmpzjYwWU89czVRqqd1A1hVZ0PtDG9j9w+qiWpZ/yOZ9o/xoaHVRXzatUVtUK5kwMOeY0SXr17Bmt8zGN/V7C1dizXAWc0ppv9+dtUmEt2616oHo1Zz6XlHnhtOJOfavnM7Ov2gxnyvTdGhR5Tinb2qnTfOe9uennKfrn6ARVTfqpmk7K2z0AUFb4/Li6qnykHh1oB2tTUIs7NWiEE6xNgQ3UrX8ve9hiBL/JczX2vla5QcxU3l81wqPUf/wM9e+U9yfHDG/NHn1BUx/tqmYhucHaZAXrGymwswZNf0r9o3KDtckvuK7a93lKkx/vLDe+vvw6jdPkCX3VPtwJ1ibPOpswQ4PyrLMD2jjnbe1MMwartNLA0T28lsFY/8O7WsE6xzggWeAJ1l4CG4205tWmjte6DqyrNn3G6dGe+bdNcban45YojZpprLvWTrA2lQ9UeGsj/D8e7RRch8BeeuT5EepmBHdPsDb5BYaqWafByrNbXo82S9Xvoe6KrJ0brE2VQproZ/cPU6Qz7q1Gt7G6+/aWqukJ1qbyAdY0tz80T7dHhjmFhm/W6YC5Lf2aKPJ2r3KPoJFqagRrI8EpYevNH6wHdH9PS4c6N0/ANPbTUZ4yz637tZ0YWJjAen00u8/9ahfmdcKkf2U1jB6pZ5sY4Ts/I8AOv+8FjerUSmHG9rn8LVqhsmo26qJftb1BJx1WMg4i+o9Ub09A9giorLBW9+uZ//qd7vT6bryscmP17vWsBrTyms7Y14Lrd9EoYz/0sUcVT8uz+mkN4/5CDcUVGqy9lKumWCtYmyPlVbVGuGZXvc0O1ib/WnqgWlV72NGlUhOtrB+p5oFOsDZVqKjQapGaUq+JZvh4/w9Uaa7ZYQ3VONArwJb3U9Wg+nqgVl0Nd4py+Su2VhsNDw3NDdYmY/s3Nj6f44IqOQXealjzjw4Oyg3WJj9jmtDmmlGjhvL3SFjPP1xL65nvpbBg7UO5SsbBSJSxbDW85lNeFW8xXj8sSu9WrXTV5h7Pfxlq3Yf+5KxirCEA16qoH9niC29shIdD+mjWGH101Cyoq5bNA5X+1RL9Zu1emecK+9WKvBwwggYN171mslOGkjYv0fRx5smDYzR96Xrt/d4oLh+s9r2HKdx6tiN6hPq3DzUCYrZOfPWOYqeMsU86fGaaFnx+IxspBqrTE4PVJlg6n7RJS2eMt5dr3GTF/nWXTmQb77d1X/X18ft9TYyQ+OhAs4tAe53NfMY+6fLZKfP17lcpylGw2uRfZxlbtGztDqUbg5Wa9r0cimsMGK5uZo122i4tnbPKqR3OKyi8gYIuZSjBs32eeVkbD5tVdf6KvDPvfIq1PR1BTaMUGei9TcdrQZz5fozHbuusNtaz4rTsSfv9mrePDluFVi21p8xzy19rHdTvTjUzfoNzvovL3TbGPGYuXKXNSWnKvug88bpEqVnbJjIimE7uWKi1L3fQ27OM28sT9OH7n+hoepbvfy5y0nXq4Cf6eMUErTCfb9xWvLpQX57IMh4MUtPoofbzLOu0Z0+yNVTntpHWvLwFtG1hNa24mLRNe80NXmxmDXC+gOvr5lLoLTVVqqtmQJZO7v1ALy3rrSHLYrUx2VzPUsOf9MwXLmvrzvaD1aW2sZYvnVPSZ29rijnNG731xKqFWvnFYZ12aq1N2z97KPcEzG3OzmnWUl8+KdO5eddam1Ke0+jLjy/WV1c9ebqVHr7rF2p4izF47rA2fuBM/+Zz+tPWg0ozK1+DW+mBn/3CenZexkFBaICyU3Zp7TvjjPmN00ufHTa+TY1PdFgr3Zt/hyqu1udkxbYjlfWyVXAVQbXU3KyZTYrTOmu/raY2NSrpTOpX6pN8Qplm0S1BueG3Qm3NrF1DFXPOKC55p4Ykxqnpt3Hqk7Rb684Yz/arYYTxavnCZZAT0M9rj9c09yTG6+Xjx3Qk20etdUCYupjdt2Se0LJDn+se4/nmNEOM+aw5dVpnfNaOm7XHpxR3fLfGOvNomvi5Jicfs55fsWq4huepZfHXlJD6qmocIJw5k6A/XF6ur+z3Ysg8842G5Ku1fqb6TxVt7APmNC8nfe41n8NKMb5oqoYYBxlXO6F2fRW7drvmOblQhVFQ0CVZdRkXSz5+ADdKqezdJ+Le0saDGUpMcf5gPbtLy+Zv0fm07HzBopm6tahr3Gfr6Ka5il22RenWJBlK37pKf3plvZLMb/zqzXSX16e+013NrL6nzcD+4vz3lXTcmc/3h5RwxqX/9YsjvK/aNzKC5XdbNHfG29ptBDZLxjElffCyFRSNXzxFtm9mlxdTUJ8OijRmc2Krvc5OmaHVkHN8h7bOn6ut3xkj1Ruqff4rBMTNV+zGQ8Y2MELxL59Wl04jNKprXeMgJU07/7Iob1MRb9nHtHnh01rg2T7f79JHczYpyXzMmE/by0m5eNvzMnM+r4732qZpSli8Q9YxWsXKCjHvr0NVT211doa+O+lsG2Mep3as1zojbC9Y6xRdlxBd/tf4QrLOX7CHdWGbTn39a308f4gSnSJvpz7qpw9X/1pHjUDsyfgX097Q1x/vkpWzgusae06urC++1klzoHYLNc7zT2uUGlu13Fn6duccu+gmt3KDJ1Qat/d3GXuLwWzScTlsOrf8gbTYspS0bZYmfrZQX5n7Y/bf9NbOb+z5Vqosq9Lfo3x/dWtiNvPI0p6N4zRl72p7Hzaknf9A/7frcf36ixvQo0eV+9W6tnGffUIb339cb5101tulXfr03+M0K84Oy8GNuqiDWZ5PthH4Z73/nN47Y7bPO6iv9v5Ne86Zj1RRvsrhYhte23pBI/gVPa0fOWU3+9iT5XTZlnlYr54xgvDFLDtcexldJUyh5bK157s9GpKZqTgn5O4xDoImpiZop7kCqtTQILvYUe5yrXDmpezL0xz5IUevnk/SPSePabFdlKtcBTscGt+cJy9dutzMIs6Yz+S0b3RPuq/u5U6rz7H9GnL+nDZ4wvcPl7QmM0kbrAMH4wAnT7j2c5brtDafStHiy8t1XhNPHbbbRRvfgXm+0suHqntV40UyDhrvN0WvGstmseZzVBOM4G/O56eVzMqOK8i4RUesZTqvendYJa5p3ihTsV1PGuvPX0cO+qrhB8qGUgjXx7Rz7QFn2HZi5yolOMN5tVI9MzFlH9LnK/NOYzm6SrusCrpA1WhglRiiFVHL/LJI0964m+xKLj9rKPP3TrU6a9KixZqd7za1s/33W9XQxtZ9cbWqb79O7U6TC8xj9qIZ6lLLfDRYtW+1npbHqdUvaJXZ5tm/gWKGRKuG8ROctHGelm21fpp9O75L63bmezwjQSesfBqoqvWtEkNxtqcXX/PRKsVaNczTVJR/lq/k6KYdVjDyC++qp16aq7GPD1abNubBhZs2aN+uRCOKSXU6TddDj6/Q7Z1HKrjyVf5s9+uuBveu0C/HbtbgZ7fn3ga0M+KOwfjk5qmASl+ofdbRTZgiO3n9mVtnoCLNautzu7T/G7uo+GI1JX/A9XVzLfSWkrPf6P/2xzsjjpMn7IOV/Bo0Vpj5rXlyh95Kvol6LgmzT/zMPrpdb/nIdsnGxrdOCK1SPe/BguWc9nwRm+87+S9K9hxvuuzkiauEu8tOaWdG3uqXI2k+wq7FX23MNtbGffOwaO27Nf/tp2pjzrZCJTXO88E5o3WnzdBfSW3qtdMu40tykRFau3ialPiSdUxx5kFyxXCNaxClrdXraoq/31Wvbmi2n15Zs6V2Nci7bA94Dl7yzDPHCPvmfTV1qRGq4c5j9cpV0uwa9e3a90tGuLdKHf5VjceN+8BGWuT1+p7b0lrVrKeFBhQ11BoLUNRNdTWDj2rfsji9+9ud6m78KJ7Zd5ueX1IK8QO4QUph7zbSS758dCHzmDOUT3RdI9wZMs+psJ+to6cLC31mjaMzeLOo7O9yUPOtkv/1fAOaJ2RuUZJTyaHUHVq92kcQvqodOnXGGfS4ru1ZCg4aQX3O21YTkJzywWrYuqsGjZ6hWQuMoD2yl2oX0hT8Wp3f/pDWvWM2ATF+24Mi1LTTUMWMXWsF7Z/9rLvzLG8D9bPHpuvOn0WoRuWi1vIlK3HnbquZVfCtd12u1Q7+WVNrOO3fG3w28cE1CnD6UM8+a6zxm0eH6tYnTdnnC9vKh3UjP2rFlemp5XVkempjC/DU9F67xWd26/ljZhMQIy8H1laXsJZaFNHeCtqzvU/g8fjhvIYc36llp04r09gbQqs11CAjmL/b0AzaoRrkI5hH39JIK+tFqk2Vyqp4tWYZlmw9n3rUiP5S1aqReibCDsh/j2itGPMvtx/OKS71hPKcQVG+NH5tXFDBZ0M4oEy5uQ4dd6VYXybmX/5Wja8P4dUKSzyBCrpa1UERXetFHq7K7KnEq+1v/tuzs953nnh9fLUzzr2N1IIPnCfm0VjdxnRVQ2NPyMk2fl1CojWqWCdZdlbt6uZ9tsyXsVzX9iwlBzdZTUCeNdvBr96knUedoB3VV+PHP2g1N3LD+f1mE5AOejt2pj7eGq/jTtBuce9k3X17lPMsR1QPNbPScboOfRyr1bOddtrmbWW83SzEF8+JjcHt1Ow2s2CgmvzE/OvArRMZf6RtrssHuFYBd5nxmjd4z83jqzR7r/CvZIfsgurrRn/UPGrW9nxBlITzijvstGn2efuXRvg4l2LZhSTdc+Rzq332spQTSnGCdky9n2qpry/DHzL1fNo3apX0uUYc2aPNp9OdoB2pKXXC850E6a/h1WqpohG6M88m6dVDTlto57Ymf6WE44HKoapqzOfI2XPK9Cyz2YtJ+mEtO7JbQwpbjWf253n9ArcCtSCFMX4U3NpUb4er6aBo9XmhpXaezlHVpt9oyrDCDpSAH7+bK1xnnNQpsyGdfwO17O3jl6DRYLW1/k1P0ZGvrRJDmjKsxnfBqh2Zb5pGfTWqo6/2Brn8yuedxux1o38Ll36Fvk62awvrRKqwDjHcsPeYfdJmuPF+ry0UB6rZ42PsLvm+26IXzHbTxpdpUOvBPnr9uDK/TlGKNNsrZKfoqOcfhGJtT3fk365XZbaD3/i2lk0fr+fmxFk17X4Nm8nlJofSuXU6umWsNs7vp7/sSDUKAhTerIf9mKNG3bp2k49j2/XpZ8uV5V3RU7VqgRMWc3lObDRe87ah0m13qUFlN05k/BExAkzeIN1OA7p1cK/Hi2SnuUit2zSguE1GSyCYZ5z53spB/uGt1M/Ht3rkba3s5izfn1DB/n9Kx4aT9gqrWs0+WdRd57XngvlBqaTIq7UpvgKzffbz6d+q05F4LTbPTC1X2eqto3CXtDn7jEZ8/y+1OrRHe8yNcEuouuT5Ig5SPeslMo1geUwvX/QOlX4ym0kXUD5UMdUqSmcPa8jJ3cZrO8E4KV63pxzV874qf7PSjG9SQ+VqmuKj9rzoslTTqlWopCOfWQWu2fNVZQ14v76xJrJVr5GvtulA2XBzhWut19ZvzP8uzRPsZmhIzygFWb9CgQrqNFhjn+iqcON7M+fwDm3cY5ab9urzRLO6zpimx9O6t4VZ5Res8J7j9NSEXsqftz1SM+xD8vCoEVaXcuY0kYOmaeoQs9cNl+yJ014zP/k3Vp+Z0xTTzfN+iqjyQEXFbtYjf96uRxYvVeMmTnk+Rz9PsEK8X6Nemjp5WJHbDft1GqH+rY31lX1MHy1eolMHV2nZ5twTHLs1cp6YX5VQtYx05hFYVw2NdT3e6q3E7Mf879pqlluKsz2vz+XtGm3sC52uvB66TZ6n8eOM9RXVOHe7GO8nPDL4cvixX82HIm4baZLuHrtW0feMVI0QrxrqylFW/9WWfBU4WZlO+AhpoqZ17BeuEDxUkfevVf9f2j2PFCZr6zYdMn54K0X2UPTPmho/j26eyHgTt7k+c07W6XKVb1O3Zr+wmsIEVhmuJ3s9q/vCin4C3VWd/VB7zHRdvra6/NdrejKip9VtpSkw4Be6r9V8/b6wrvjOnrP3pzod9Gyz++2w65bkbdpjVl77N1Lv/3pBvYOdLgzLt9KdzeZrQvva1kFH0t6/yKWP2jU7sq+y/U9W2DmNs0rctezcKeskx9DQ1toaXEOjyxdhBfuF6+91IrW0UmXFeD2/eflKqufnSah5P6DDqzbX1hrhmuHv79U2u7wRqCupqvUS+Wtkc5ya54pGUK+saHOacuX1QEAtfRjWVt19/SaUr2j1FKJKoXrGmE9MBT97uiu5eEr/MvNqhVoaFBap2ICKV5/Gl/vO2W26TwTlbXbilvTy1nZSBWquUXaV/EVkzG74nJPPClycJXqcpg43QpnZE8CTL9sn1Fj9QhuBx/pb3IeMA3r3lRna6n3RGa+LnuSVoYQdSaod1UxB+S4io+jHjXkbYc8ZzZWhpMPZalg/OHc5HZ7lvxLrwifzc0+sNAPseLOf7wLL5pG7fgoYuEKP9IlwRqTT22dq7Uu+vu7Mfr6naYjVHWEh8r//RsY6m2CuM7Mnjxc09/IJh14XmEnbpT9N9brAjHNxl8LkHN+iV2ctUZJ3287ibE/PfPIvc1EUul0LXkTGcyGhwpzasUgzFxZykmyRt80kdXs2RnWcsQIuperr1b30pXeXIdV/rx4j77KvTJjfhSxl3RKggHPx+jB2rM921HXu36xutzmBMm2b1r06QSV0blrJK+pFZNRKA+6ZovvqFwzS2SmHdbpKfdXM8X0RmWu68IzJ7E+6j/FYIZk9Y+9ijf7MV48h92ts3+Fq56v3jXwXkSnKxWfyzyew5u80675WCi4kU2YkfqA5nyz0OnHRuYhMFd8XpzH7G7/PCMJXvXBNkWVr6YIdig4q4kVkjL3bc4GU4VVb65mQSjpwPE6/NAOkEYr/Wb++qmYe1h+SjzonOfppSo2WGhTs6QaoILMbv9vPeNWYel7HGS0g5zutOZr3QjWeZSlMZto3GnHqtLy/OcZVa6PR1X0t1yVl5lxSRT+/3PdmqaSldVtb3er5dPG8jpz+Vi+n5734TD3/2lpV51aFFvpD4OOiM/mMfvYbjWt5movIANfBzboTd5j9L099Uat3HLObFDhyMtOUtOMdvTgpXxAzHV2lV195Rzs9XfAZzqce0MbXJ2vBljTftY9mN3Rrd+moVxD0TBO7z70okrN1kV40T5pLSFF6odWghfjrOn153K7FvHh6v758v7B6hAztff1pvbBsi/amZsjXBcXyMAPvaPtgJOfwJi3N05OHsQ6W2c1DzH5x+w+7evvrnLMp2rvZOKiYki9Ym4qzPa+HsV1feH1TkdbDJ68t0bqvzOXy2jCXspVu7AebV76oFwoL1qYib5s39OnqddqXnK4s73/Ds+x+rDcuGZE3WJu+/7U2rtigo2m5E1w0nn/8y+X6yzzPlSkLdzwu/nKYTktY/+MN1tdkl1Z+vEQbD5/T5a6Js88peddf9NKHf1Oym+dQnY/VlD8v1P/tPSyvTWTPb+/f9GahXfH9RbHrFmrjwe/l/MHiqoyTz+nZd/6i+GRjHVxuo2ssVtphxW+aowl5gvWN4K91e8yui06rTdf0EuhDOUfPn9qp548d1oELxgouSrVRzjH9wQjPezLO57ZrNplXTkzdr+ePFLwC5OL0PXr15AmlmN8bnnn84OnHeqcG5AvWppfTvtbi1NM64912OuOE1h2ONx7ztTOc1wYjOFuM52ZmZ+ddvgqVVC+k4MVnjmSfUKeju7XhdLoxr6v9EPhQL10xt5ld9oVr+19LIFgD/yFKsOYaZc711Cij9NSZo5ihHRWsZO2Y3+8/p701bn6B5/Tu/+5Wc/8ailvUREM2O+XIo15AQ30YXlcVc05pzdH9eQN+ufIaXrmJnqlpdq2Xrs2HfJ+kWRzDn96vZ1qfUubuNmo1q/B/AK4LNdf4D3Dz1VwDuA4d1aynGayl8/s3EKxxc8morJc3mVeZOqXo/ikafuVWdv+xHggMtS5Uk3n2WIGac7OWfHHGqcsXr3FLvS4pGm0Ea2U31LJXSihYewu8yOXVUWYRroGyovJAtRjye0WZjbWzErXjbwvtcuAmsvnNcK1JCpKqJWjcc+l5mjUgr4pVwrUooGLeEyf9a2hlzQb2SYfnT2mDG7XWkelaNCxBVVVNO1fV1R/yN+9z0z8q2T3u1DyqZ584ry6F9R4J/IjRLARFR7OQm1KNXhv0yxbef6+ma9+aofpnws10mRPAS2Cmlr74taKrSWfiW+n2uYWe8f2fya+utoY3VOiVqr8unVNc8hX6uy6ybC2dv8veFl+0UJ85FV2vFc9v+IQEPdPW+yzZ+lozKPyKJ1oCPybUXANlxaUsnU/dr3++SbDGTS6joobMvU17TtXR5vUE6wJyjunBI86JiXnOzL6kzGznZMtDbgRrk782H6yulFIK1qbFcyL1/MaGOnOhuJ3FAzc3aq4BAAAAl1BzDQAAALikRMN1vfAwhdf1ffmMoKAqqhka4ozlVSs01Lq/5ZbCetAHAAAAbj4VQurWm+YMu6r73V00qP8DahTRUMdPfKfvT+deyqLVT5vrf0Y9pp9H32GM/aAD3ybZDxjKlSunvr176lcD+qtJ40b6NumQzmWU5KnLAAAAgDtKrOa6mxGuTbVr1VSH26OsYY8mkY2cIal506bOkK1NqxZq3eKn1rBZ831rROGX2wYAAABuJiUWrnf/a491//3p00o+fsIa9jj1vXl5VVvy8ePOkO3s2XM68K19PehT33+vjIzz1jAAAABwsyvR3kLMGujs7Gzt2bffKclVt3ZtVa1aRadOndbJ1FSn1BbRoIGCjce+TTqsM+lcYg4AAAA/DnTFBwAAALikxJqFVKwUqICK9PYBAACA/xz0cw0AAAC4hHANAAAAuIRwDQAAALiEcA0AAAC4hHANAAAAuIRwDQAAALiEcA0AAAC4hHANAAAAuIRwDQAAALiEcA0AAAC4hHAN3Ajlu2payxc0sXKgU4AbI1Ddw17QnyK6qrpTAgDA9SjXpG30D86wqypWCtQPly4pK/OCU4Ifv4Ga98lYtQtyRh3p8bH6xcjlztgNEhGr+we0UxVn1JaufSu765+JzujNolxnTWszTO2Mhf3+4CI9fCTOeQClL1qT2o5QR3NbJC7RqENbdM55BACA4qDmGihVdfVIk8F2sDbDHMH6BovTzF3rdSBbqh4xWDND6jrlAAAUD+Ea12C5xtzVQdFR9u2V+HSn/CaQOFZ/mdVBb1u3WO27Sasf64eMVM/a/tLZXXrrMLWkN4WcVZq0a5exLfzVuMlIPVLBKQcAoBgI10BpKddDoxo3UIAyFP/Ny9pQIg2yUBznzi3SyqMZkn8DdY/oocpOOQAA14pwDZSS+rXuVOtbpKzjm/SikeNwM8nQu4lxOmwc8FQOu1MPU3sNACgmTmgsjub9NOl/HtDdLSMUVNEpS0/V/k+X6HdT1mq/U3TZnUM167EHFNU0REHOj3aW8fxEn893ThpUvF65a4VCXxmrmHbOfC5mKT3xEy2cMFVrDtvP9tZkwHQ9NaiDmtYOUoAzn/QT+7Vj3TK98uoGJdtFeXR89Pca1TdKTYxpLOY8UhK17c0ZmrqywDvJY+DCDXqiXVCRTmg0l+25X3Xwmk+6Uvdt15LfG+9lj13knoG6fexYNa1chBMaqw9Vi188oKYNQlTJzy66eC5Vh79cou1b1uqiXZRHhYbT1aF7B9WvHqQKPg9PExU36yElOGO2VprUZpw6BmXoqy/GaPJZp7iASVq5I0YRievU968hmjeqo8KMbZ/+5RsaMi1FT7z8hO6KCDCyYKLem/yQZn7qTOa45vVcv7ueeGqYerQKU0iQ8bqmzHQl7v5Ea/4406Vpmqj3mGGK6RGVZ98s/DNg87yXiNDcafIy1kGUsQ6cMVPYvWM18bEYtavvTGPuz4fjte61OXrlI1+fAG+BerjJXD1Yx18nEl7UI8l7nXIAAIquQkjdetOcYVf5+ftLP/ygixdznJKyIeyB32vp7weqXYNqquiEMUvFQIU0aan6597Sh7udMkPYr2K18rneal47UBW9glgF6/kd1bNbbe378xblZuWW+uXQOxQWFKTI+3vojmYhufMpX0EVazRWx+ja+nL1ljxhOezJpXpzVHtjuop5Al/FKiGKaHurKi1aqy1OmS1MA+ev0JQ+zRVSxXOEYDDnYUwT2amnutXdrzWbfaR4R8uYh3WHkfyykj/XW+97vel8Ok5doVeGR6lWnvlUVGBN47307KZa/zaWLckpd0VLhd9xh0IDspT69VtKPu0U5xcZq5jBvRVRI1D+XuusfECgqjXoqKYRtXVw1xbl2YONaf7rwc6qFVhR5cs5ZQWc1pF/rNUpZ8wS8F8a2rieqmQm6INvt+kbp7igznpgZFNVSy+nNl1+pghnlVWsU0vNb+uoO25zuu7zr6amtwbq9bWf2+OGa1/PMZq1copimlVTYEWv9OpXUdXCmqplg/M+tmsxphk0TfP+X0fVz7dvej4D3aLO6+/GNN4t+M3PzWtPdlaY8V58H8CYTmuf135tTrN0Ug9FVvOaxtyfq9VXy3t+qZ9d+Ls+/OpK5wlka9el1nqgdg0FV6igf53YoRPOIwAAFFWhP1vwof5ATRpzl1WTqPRErZ83Qb+yTu4boidffEOfHEhVlv1Mx1BNf6ydQowMknUiXmumD7FPBnx4ppZsTbaeG9A4RqOeCrOfnkeQQmoHeE03RDM/SLRfPyJKD9xhPckRpSfubiKzDjH544V68mHnpMOHJ2j2kk+UeDrvUlkenaZR0SHGgBFA49dopjPNr6a/oW2HrSVTRM+Rmljfenbx9Z6jyb0jFJCZqviVMzXmfmc+4xdq/QEj6FSMUO9RE4yoX9qGKrpnOwUbn4Cs1Hh9+sYQ+2TIl2fq453OtqkXo9ujvJesu352j93d3/kjG7Q+tp89TWys/nnEDm1ZR9ZpdYFaa0PVMNU27rJO7dW7dsmV1W+iJmbN7Ph+Wm8d34Sp5c/sfwl+9eZ+ez8Ia6KB5r2pOOt5dIw6mguVbhxE/W6M+pr7TFQ/jXlmod77MlnpmfbT8ijONMbSmv+gfLJkdp59c8HH9noOahdjbA1v3TVxcDvjE2DM5sAGvTKynzVN35Gx9nsxZB1YpzHetdb1x2rWKHOadCV+kPsZ6DtyptbEm5/LILUbPEG9nacX6nSSHaiN7dXOKgAA4NoQrq9B2PAYu4/njN1a8vBDmrpkm/N39n5tW7lQz/Z/SE8uswpsT96tlmZFY3q8Fowcq9nvOX9+71mnhU/00wKnt40m0UN9hsusxHV69pee6fbrvSnrtMuaJEhVIs17jxAFeCorM5KV6Plbfs82rZn3aw24xwjmTpHHE11bWmE8PX6hHhs5R+850+x/zwgm9y+UtWgVmqjd8OuLvUP/yzi4MKLN/lUjNObFdYp3KsL3f/qGpvZfq91m2+PIVnrALi49be7WrZWM+3Px+njJWB067mybC+t0dH0/bfza3jYNfuod+0Llb7WCSNbXa6bq5Dnnv4Nzy7VvzXadNAYDqtfN19e2rUtgqHWfnZli3RdF8pZYzfw0WftO2Mti7kdLRi7X/pQzyp9hi7WeK1W09gEZr5ayb4fzT0iy4je+oZmP9FPfJ3w09SnONMsmqO8vh+jZeWu1zWvffGPiWmd/DlHYAKvUEaoAZz1vmzZVy+OducQv19Rp2615BtSqaxx85Go36i41MT4DqR9P04ApxgGiM5/k+HWaPXKqtpkThTTVXT3t8kL9kKAT5roqF6za5v4BAMA1IlxfgweaRlj3ydsWamHhrSUuG9jU7jM3dec6Lffx/OUf77P/Cg+pq7usEm/p2vXOTG1zxmzLlZzqDOaxQWu22rXaYT2n652/r9C850eqd7vCgvFANbEeStXu94zXtMq8Ldcn/7IDXUhYwSUruu5qVd9MSQFq8qu1ituxPd9tqH3wUSFEEVcLPS6rEV5XZqOGtG/W6aSPlkundu+T1Sw6uK5qWCWmFGXbVcZq8cB01azsrN/KA9X0gQ6qaQ5nZVnboTDHM4rar3Wyds/Lu/WTP3vD2DK+FHM9/3m94s0mM0EtNeqNzfrgrTmaOKxjntBaQHGmMdZXjyfnaOWHG/Tp597L5XVBIq8WJuZ6NlajIUwdp03XQGc/Dms3UNOndbAPRI0neH8UOt5qPyfk7jler++5zdNd1sMhCm1qPa0I/BVQaLMfAAAKR7i+Bp6mrFkZO+yBqzBPxDKln95g3Rew8liegHA9tk1/SM++ajYBMUaqRahdz6GatNAIWkbQfunJ7vlqxiNkL1q6Uj6wCgpY850bS+apgbz51Khhb5vzZwvZNknH7HCdxwZ9+fFunTeGKtXrrh5j12rws9s1eOxY3V7PfL107fv7HB/TFUeWMvMdkBW+3xVzPR9erjFDZ2vNl2bzjACFNO+oB8bM0Zufm6F5uh5o7jzPWzGmGfjKIk0f1FERXiczXtkGzV5tt8EOatxdT5j7sRGS31k4Vj0a2+s5/u05Wm891+bdzBwAgBuJcF0MARXyRtXCJKbYtb9B1bpb9wUMqCuz1bNbtr1uNgGx25ku+SD+ctDuOGiyXnouyn6SJVH2ogUptJAa4wdqublkRhh6yWlr6/PWS08WEvJLStppe9tUqlLItmnoq3lHmOq0aKpKxvs5dSJdWZ4a70tZSkuO1z/eHKp/JhT8H8BbncBoZ6gkFGM9H16r2Y/0053th+jJeWu0bY/ZPtkMzd01MTY2t023t2uZpv4E3Wu17TeWbs+6y+2n7Vus3fyogDDF/Lyp1X46OdlYz54uW6zecuK15vdDNeZN3+s58T3v91vw9quXnCdeVbay6IccAFAMhOtrsOOQXZsb1masOlpDV7bfCXAhP+3h40SqMA282wwQhuT9hfzdXzxmO9OFU8YaQbufpn5sLnOAItr0sB+07NNZa9FC1LRHjFWSR/2Buuunds3usX3Xs2TLtd/KQEG69Q4f87mB0tLtbRMc2UPB1pC3MNVs3dQK1xdP7s/t9SNopFo3CTBWynZ9uKS7Vs92rgj5Qhete3OsEpMLD9bxF9Ks+8qVGlr37nJjPe/XtiVz9OTDvXTnUOP1zHbH1ZoaB2b2o74VYZo7I1TXqq1O1rZJMy+3n7bUD1FVXzXZd4xUj5bGej68XWNiuhsh3gnH7bvoF/3GavaaguvZ89mMaHq9J8c2VHWzrfUPaTph/kUBAMA1Ilxfg/Xv7rbbJ4fdpVnrYjVxgKetaZja9RmpWatX6CWvYBH/zg4lmrVuIR018S+/19A7nZapzWM0ceEijbIanKYr/oNYu7zYJmnlJ2v12uyReqBb1OVwEdYuSi1rO+0F8nTYvENr4u3On0M6TdQ7s4eqo/N3fpPeEzRv4Ui7LWx6vD4qck2fb2vi7Z4tzPl88KdJueugSDqq8W836JE/b9cjb61V1N3XF5u8ZcXv0HGz5jm4o3oM+b1qBjvLdUuMGvRapLub29smIc5r24TUkHWOW0gLtWjSXVVq36UA7+4Yr+BcerK+NweqNVAfq8RdxVnPA+ev1QerYzVpWPfL29/sk7rjHWG5zSzydfR9zdOc9rRBD1XTx2Lsz0vzjhr63CK9s2qgmjg9C+YRWcM+6KzVQk8Y8+nR8y61u0qvNes/3mc3sWr6gJau/r1G9sn9HFyTqg1U32xr/X2SCmkwBADAFXERmWtk9iU8y+zyzBnPy/xbvrvGePUYcuXnZyn104V6bLz3SYXORWSCCr6WadLa7eodkf8x58IjzlgBF1O17Y+98vZkYgTXSWt/b7yW7yVTpjHNghF60vvv90Gx+tuTdhdphTIC+St3jfWqiTcOLJZP0wNNC5+q0IvQtJujfs90VDVnVAfW6E/PznFG8qrRa4N+2eKKS6azX8fqL+/nzqdShxWK6VL4tjm1Y6E+/Jv3cg1U28fHysrdvmSl6+T+ddr6UazOFjhJMlrT2o1Qu8AiXkTG6wIpnov1mE0eBkw3CjzbIc+6vvb17Hndwpjd3T3Zf6binXHTtU/T0TgQneOcUJifEbwzAxRQMf/+bHwG/m58Bi5v+Hwy05W8e50W/i7W6abQFKaBc40D1jtDCtmehsR1iu6Xv9+cvHo1mqdR9QK5iAwAoNioub5G5omDj5pdnSV6tQU1ZJ1OVPy7C/VKvjBsP3+D9pttdD3PN9uOntiv9S8+pp55gnVxvaHZf3SWybuPNiOEpO75REumGCE533IZS6aZ/R7T7A/2KzXdrlu0WNNs0OxHjTBeSLvWa7NNswcO1ew1Zhtwr/kURfxaffmN0yj3XLK+XL/CHnbJ+e0Pae2KDUpMTdfFS07hpSydT92vf654LF+wNn2iA/tT7YpZ43lZF4ybd4gOCFLNFgP1y4GT7BruPOL0/jGzaUigmtV/UNfbfXhB176el/8xVks+zrf9Dfa+PFuP5gvWpmufZpuefWa21T913rbT27R88kP66JhTlscn+mSnc0Kt8dysDOPmXRteMcjqOWTyy5OM6O6RrOXje1kn9eb5rF2LCg/qF3UCpR+O6Z8nCNYAgOKh5hooquaL1K93S1XKSlTckoeUYLXzcPhFqebdk9QtKkwVlKqvl/TSl/kv71eul2ZH99Vt/hmK3/G0pp0zGykjv7DRi7Ty0ZYKyEzUe8/mu8R7/SgN/J9JesJqIpSqbVPcOhk2UN0jXtATDQJ17sjbevDgJqccAIBrQ801UER1bjN7CpGyDm3LG6xNOTt0Ms7r5Edffnhfrx84piwjyLVrOkLd6UfZp5g7mlpNO7IObMsbrE2Hd2j5n/e78G9PXpUrj9DD9QOl7AN651uCNQCg+AjXwDUKaHCXftainyrd4hSoiSo1maToAR3tC8mk7dO3+WutHd98t1gfnMyWqrTSqNse1G1OOQoKaHyXXhrTL++Jk8Mm6bWpHe2TFVP36RM3aq39HtTMVq1UvVyGvvrXXK2iCz4AwHWgWQhQVBFzFNO/o4KvdEh6KVV73hmhL67U33W5zprWZpjaVZG+/3aRHj5c1Ks2/ocYNEcf/E9HhVzpgjMXUxU/b0Sh/V0XXbQmtR2hjua2SFyiUYe26JzzCAAAxVEhpG69ac6wq/z8/aUfftDFiz6uLQ38GJ3eoP37/XSpWn0FVw6Uv1f4u3ghXd99s0Gfrhitg9/5vDKKl0P65GQFtQ2+RV8lvqP4i9lOOSy7N+iTw36qXbe+QqoGqqJXd4dZGek6/NUGvf7r0Zq98WrruShOqZJ/JzU5vYJgDQBwBTXXAAAAgEtocw0AAAC4hHANAAAAuIRwDQAAALiEcA0AAAC4hHANAAAAuIRwDQAAALiEcA0AAAC4hHANAAAAuKTEwnXm+QwuIAMAAID/KNRcAwAAAC4hXAMAAAAuIVwDAAAALiFcAwAAAC4hXAMAAAAuIVwDAAAALiFcAwAAAC4hXAMAAAAuIVwDAAAALiFcAwAAAC4hXAMAAAAuKfFwPXzCfu1bFqd9b/5L/3wxRc80dx4AAAAAypjSq7mukK6qYQka/vRRzYh0ygAAAIAypFyTttE/OMMlKrrdOY0b9o3aVMvWmfgo3T7X33kEAAAAKBtKreY6Lr6yBrxfX5nGcNWaF+xCAAAAoAwp3RMa08tb4RoAAAAoi+gtBAAAAHAJ4RoAAABwSemG6zQ/ZZn3gRcVYxUAAAAAZUfphuvdlXQ4w7iveVTjRmSqSw27GAAAACgLSq0rPo96XU5r6eBvVS/QObUxPVJ/GBWqxfYYAAAA8KNFm2sAAADAJaVcc52pla/tVJvAGtqzppH+sN5PcWYzEQAAAKAMKN2a65bnVT/QuD9RR394l2ANAACAsqV0w3VwjgLM+wvlFGcVAAAAAGUHba4BAAAAlxCuAQAAAJcQrgEAAACXlG64Drqkis4gAAAAUNaUWriObndOK3sdtsL1mdRb7EIAAACgDCnxcD18wn7tWxanpeN3q021bOliuDb/1d95FAAAACg7Sq9ZyMUgnTl5q9a9Ul8TE5wyAAAAoAwp5Ss0AgAAAGUXvYUAAAAALiFcAwAAAC4hXAMAAAAuIVwDAAAALiFcAwAAAC4hXAMAAAAuIVwDAAAALiFcAwAAAC4hXAMAAAAuIVwDAAAALiFcAwAAAC4hXAMAAAAuIVwDAAAALiFcAwAAAC4hXAMAAAAuIVwDAAAALiFcAwAAAC4hXAMAAAAuIVwDAAAALiFcAwAAAC4hXAMAAAAuIVwDAAAALiFcAwAAAC4hXAMAAAAuIVwDAAAALiFcAwAAAC4hXAMAAAAuIVwDAAAALiFcAwAAAC4hXAMAAAAuIVwDAAAALiFcAwAAAC4hXAMAAAAuIVwDAAAALiFcAwAAAC4hXAMAAAAuIVwDAAAALiFcAwAAAC4hXAMAAAAuIVwDAAAALiFcAwAAAC4hXAMAAAAuIVwDAAAALiFcAwAAAC4hXAMAAAAuIVwDAAAALiFcAwAAAC4hXAMAAAAuIVwDAAAALiFcAwAAAC4hXAMAAAAuIVwDAAAALiFcAwAAAC4hXAMAAAAuIVwDAAAALiFcAwAAAC4hXAMAAAAuIVwDAAAALiFcAwAAAC4hXAMAAAAuIVwDAAAALinXpG30D85w2dR/mmZ3ayAdXq+Jv13lFBZT9DhNHd5KQc6oLUM7F4/RsjhnFCgDJq3drt4RUuJ7HTRgulMI1wwadkL/r+NxhQaeN8bqa82gcE22HwIA/MhRc40yJXLQZI1/caFG9XcKfszuGKt5a9/X3zbEaqBT9J8lSk/MX6EPPnlf8wY5RWXA8PEJmtLtWydYAwDKGsL1tYh7WdNHDNdE67ZIO8865bhpRDRqrPBgf/k74z9qkU3UNCJEQQHO+H+cpmry0wiFlKkVcE4xrVOM+yClfNFSk8dGqym11gBQphCuAaC0/Py86plHfqfqau6cylpzyi4GAJQdhGsAKG3p/lrjDAIAypYSPKHxQY1d1EMND6/Xs5uCNX5AtGpXNH5Tvl6lGa+n6L4Jw9SlfqCUcUgfvTJNGw86k1kC1bDPCPXu2EwNg50/+C9l69SxXdq4cok+35dhl+VTqf1gDewTrZ9UD5Sfc9iQky35mS+R74TGbr9ZrHvrS0kbhyt2tVPoiHx8nka1DvT5WK5oDXpphNpUKcIJjYHN1P7hwerWqq5qOG8nJ+2Yvtj0tt75v73KsYuum1/TXuo74B61rRtsv/9C11lj4/0/bbx/Y2HO7tKfnntZe70fDje23SRj2xkPn/r8Zc18fZdd7pwcemLLZM39PEoPDrpXLWs56zrjmHauf1urfL6fa9yeznzSv1qk6UvS1H7YYN3XvK6CzEkvZejo7nVaOn+97Eo/z3awRq7I5/asHq17h8SobWNj2xj7pyknI0X/3vmR3v/zJp3wvatdsyYDpuupQR3UtHaQAirYZekn9mvHumV65dUNSraLpKkrFGeeSXg16fF65a6xWu6MXp4ucZ2i+810Ch2DYvW3J9spyNdjaqIHnp+sYXd6Nb+4mKUsBVjL6fuERs80TYxpnKL0VO3/dIl+N2Wt9jtFtoGa98lYtZO5vCsU+spYxbSLUJC5ro35pCd+ooUTpmrNYfvZ0iSt3BGjq6+BdMW/1F1jljmjPxY/T9E/RyeoatJP1XRS3lOjAQBlQ8nXXJeP1KMD7WBtCmpxpwaNcIK1KbCBuvXvZQ9bjOA3ea7G3tcqN4iZyvurRniU+o+fof6dnGkvC1SzR1/Q1Ee7qllIbrA2WcH6RgrsrEHTn1L/qNxgbfILrqv2fZ7S5Mc7y88pux5+ncZp8oS+ah/uBGuTZ51NmKFBedbZAW2c87Z2phmDVVpp4OgeXstgrP/hXa1gnWMckCzwBGsvgY1GWvNqU8drXQfWVZs+4/Roz/zbpjjb03FLlEbNNNZdaydYm8oHKry1Ef4fj3YKrkNgLz3y/Ah1M4K7J1ib/AJD1azTYOXZLa9D2JNL9fpT3dUyLDdYm4JqN9Fdjw7TUGe81NUfqJc+fE0Te5oh2atdcwU7WPvWUZPWeqZxikxBIWrSc6JeXzvJeIYPQU016MPfa2AnJ1ibjPkENe6uiS9PMsI3AABlQ8mH6/DGitQhfTRrjD46ahbUVcvmgUr/aol+s3avzPPl/WpFGs+xBQ0arnvNZKcMJW1eounjzJMHx2j60vXa+71RXD5Y7XsPU7j1bEf0CPVvH2oExGyd+OodxU4ZY590+Mw0LfjcPHnoRglUpycGq02wdD5pk5bOGG8v17jJiv3rLp3INt5v677q28p5enEZIfHRgWYXgfY6m/mMfdLls1Pm692vUpSjYLXJv84ytmjZ2h1KNwYrNe17ORTXGDBc3cwa7bRdWjpnlVM7nFdQeAMFXcpQgmf7PPOyNh423oz8FXln3vkUa3s6gppGKTLQe5uO14I48/0Yj93WWW2sZ8Vp2ZP2+zVvHzk1oGYttafMc8tfax3U7041M4JezndxudvGmMfMhau0OSlN2RedJ16XKD1xdxOZ0TX544V68uEOio4ybg9P0OwlnyjxdJb9NI/pD9mPm7eX4q3tY9VSe8o8N+9a62Ia+NxQdaxtLFlmsuJXztSY++3X/tX42dp2wnlSPr3nTlLviABlnYjXmt+NUV9reYboyXkblGgsbEBEjEY9FeY821uQQox5WdNNH2JNM/ODRFnvPiJKD9xhPckwUwMuv89YxdsrQPEveco8t+uvte5wxwotHfreVW4r9GSoM4Ebgi7JOra4WPJfvQCAG6NUvuFPxL2ljQczlJji/Md+dpeWzd+i82nZ+ZoQNFO3FnWN+2wd3TRXscu2KN2aJEPpW1fpT6+sV5KZ4ao3011eFZed7mpm9T1tBvYX57+vpOPOfL4/pIQzLv2vXxzhfdW+kREsv9uiuTPe1m4jsFkyjinpg5etoCgj+Ea2b2aXF1NQnw6KNGZzYqu9zk6ZodWQc3yHts6fq63fGSPVG6p9c7v8srj5it14yNgGRij+5dPq0mmERnWtaxykpGnnXxblbSriLfuYNi98Wgs82+f7XfpoziYlmY8Z82l7OSkXb3teZs7n1fFe2zRNCYt3yDpGq1hZIeb9dajqqUHNztB3J51tY8zj1I71WmeE7QVrnaLrEqIAz3wykpW4xxnes01r5v1aA+4xQqZTVLrG6t421qdG8fP7acyL6xTvHJjs/3StUnz2EjdUMe2MtZ6xX2tGjtXsd3c4zVn2a9uSqRqwarcVlpu06WeV5peVuE7P/tKY7j2z4ch+vTdlnXZZ4TlIVTxH12VY80aZiu160gjX/jpysJJTCgAoa0ohXB/TzrUHnGHbiZ2rlOAM59VK9czElH1In6/MO43l6Crtsn7NA1WjgVViiFZELbNmNE17426yK7n8rKFqm/e1OmvSosWane82tbNdJVY1tLF1X1yt6tuvU7vT5ALzmL1ohrrUMh8NVu1braflcWr1C1pltnn2b6CYIdGqYQThpI3ztGxrYcnacHyX1u3M93hGgk5Y+TRQVetbJYbibE8vvuajVYq1apinaaNTUlxHN+2wwr1feFc99dJcjX18sNq0MQ8u3LRBa7baNbRhPafrnb+v0LznR6p3O1+1u6VoUBPVNZt+nN6nT4paA9yzpcLMPzgCm2jgX7Yrbke+26MtrRp6hUaoh3mfR7p2vTNT25wx23IlpzqDN8D2zx7SkDd6X+X2kF663j+/Bh/VvmVxeve3O9Xd+EI4s+82Pb+EmmsAKKtK4RveSC/58tGFzGPOUD7RdY1wZ8g8p0L+ldbR04WFPrPG0Rm8WVT2dzmo+VbJ3zy4KC7zhMwtSrrkjKbu0OrVPoLwVe3QqTPOoMd1bc9ScNAI6nPetpqA5JQPVsPWXTVo9AzNWmAE7ZG9VLuQpuDXatv0h/Tsq2YTEGOkWoTa9RyqSQvXKs4I2i892V03NGafPlb0XiuqBdjhGcVXwa3TlwEAN6ubq/pkV4qsfFaxsl3j60N4tcIST6CC8jd7KCb/Qk/mKiazpxKvtr/5b8/Oet954vXx1c449zZSCz5wnphHY3Ub01UNjT0hJ9s4EAqJ1qhinWTZWbWrm/fZMl/Gcl3bs5Qc3GQ1AXnWbAe/epN2HnWCdlRfjR//oNXcyA3bXjebgHRQ35EzteSD+MtBu+OgyXrpuSj7SSXlSvtzUIiPWuar8NUG3PvWfYLWO0+9mZVam+u3w9V0ULT6vNBSO0/nqGrTbzRlmOdoFgBQ1txc4TrjpE5lGvf+DdSyt4/Q1Wiw2lrVfCk68rVVYkhThjmN2ewhMt80jfpqVEdf7Q1y+ZXPO43Z60b/Fi4Fvq+T7RMC60SqsA4x3LD3mP2/dbjxfq8tFAeq2eNj7C75vtuiF8x200YwDmo92EevH1fm1ylKkWZ3eNkpOur5B6FY29Md+bfrVZnt4De+rWXTx+u5OXFWTbtfw2a6fJ6dS5Lj12nhlLFG0O6nqR+bbSICFNHmmuNt4SpUzFsTXn+g5g1pV/Ag4bTZ3Z6hWqhaXm7GY+v41FLd7asvvGX7dcw8yTPoVrXrbReVGrcPeG+APV9V1oD36yvTOACt14hLnwNAWXWTNfxbr63fmM0EzBPsZmhIzygFWRkpUEGdBmvsE10VbuTAnMM7tNFzYpj26vNEs7GvMU2Pp3Vvi2BjOFjhPcfpqQm9lD9ve6Rm2NWr4VEjrC7lrBMLB03T1CFmrxsu2ROnvWZ+8m+sPjOnKaab5/0UUeWBiordrEf+vF2PLF6qxk2c8nyOfp5ghXi/Rr00dfKwIrcb9us0Qv1bG+sr+5g+WrxEpw6u0rLNuSc4dmvkPDG/KkYgi3TmEVhXDY11Pd7qrURK//rv2mqWW4qzPa/P5e0abewLna68HrpNnqfx44z1FdU4d7sY7yc8MthYQpunEr6AIm4bq9/mT9bqtdkj9YCx/T3BN6xdlFqaPXWYCuuVJOGs3VtIUDsNWjhBva/0z8x36XZYrt9Bk0bb8zH71l751li1q2Y+kM8Hn2ifuW9WaKLeL0+3X7t5jCYufF+zBjQp5DOwVvEJ5lxC1PHZ9/Wa2duIS/8W+bZPZ50THtsNjtXE3oWu5GIptTbX3tLLG+HaUIGaawAoq0r+IjJmN3zOyWcFLs4SPU5Thxuh7OwuLXjyZfskR6tfaCPwmBnZl4wDeveVGdrqfdEZr4ue5JWhhB1Jqh3VTEH5LiKj6MeNeRthzxnNlaGkw9lqWD84dzkdnuW/EuvCJ/NzT6w0A+x4s5/vQptF566fAgau0CN9cqsQT2+fqbUvrXPGvJn9fE/TEKs7wkLkf/+NjHU2wVxnZk8eL2ju5RMOvS4wk7ZLf5rqdYEZ5+Iuhck5vkWvzlqiJO9m1MXZnp755F/moih0uxa8iIznQkKFObVjkWYuLOQk2SJvm6tcFOViqrb9sZee9HlSYZQmrX5JvRv7aOmc/yIy5sVa/u47SKcfSFRW4wiF5LuITLvnVugl4z0UePX0/dp2uK4RnIMKXkTmzgl68/kH1KTQI9D8F3dxLiIT5PuiL5PWblfviMIvCFPoMhaYz48EF5EBgDLvJqu5Npj9L099Uat3HLObFDhyMtOUtOMdvTgpXxAzHV2lV195Rzs9XfAZzqce0MbXJ2vBljTftY9mN3Rrd+moVxD0TBO7z9Mt2/XL2bpIL5onzSWkKL3QatBC/HWdvjxu1Ufq4un9+vJ9X+HNlKG9rz+tF5Zt0d7UDOVcrVLMDLyj7YORnMObtDRPTx7GOlhmNw9RcCv1H3b19tc5Z1O0d7NxUDElX7A2FWd7Xg9ju77w+qYirYdPXluidV+Zy+W1YS5lK93YDzavfFEvFBasTUXeNm9o9h/XKT4xXVle71+Z6Urd84mWTBlRSLA27dDMCTO0fGui0r2n9Wm5xkxfrvhkq6rXZl418YPZerz/brsGPJ/4303QjGXxSvZss4tZxjJt0Oz/N0TrU+z3VsCnc/Srh2drTXxRlun62cu4rWB/4AAA3KRKsOYaZc711CgDoOYaAP4D3Hw11wBQ1gVeVIwzCAAoWwjXAFBa/lFJJ837mkf17BPn1cXqCB4AUJYQrgGg1FTWmi/MjrPTFXrHV1oUG6d9y45qhv0gAKAMIFwDQClaPCdSz29sqDMXKjklAICyhBMaAQAAAJdQcw0AAAC4hHANAAAAuIRwDQAAALiEcA0AAAC4hHANAAAAuIRwDQAAALiEcA0AAAC4pMTCdcVKgQqoeIszBgAAAJR91FwDAAAALiFcAwAAAC4hXAMAAAAuIVwDAAAALiFcAwAAAC4hXAMAAAAuIVwDAAAALiFcAwAAAC4hXONHopp6PFZZgc6Ywm7VpGV3aOjDXmUAAAA3WLkmbaN/cIZdZV6h8YdLl5SVecEpAYqiqga91EqRlZxRj1uqq0Ftfx3b9KGem23uU7dq6odt5L9pvWbOPqcM+1kAAAA3FDXXuMmc0btvxOvtV/+h6aO9brvOSOe+1XorWHtc0MkDBYN14MPt9NKrt6qxM+6uW9RnXg9NHc+l/QEAQEHUXKP0NPi9YubcpVrG4PmdsVo+c7ldXhTju+hPHc9o0X/v1GdWgVlz3UynX/tQf3zXKrCF1dLE2C5qVumCDn30N01/xcf+1zlc//PgrapWwRm/FlYNuhmss3Xobx9p+tzC9++AkWv1cLcwYyhde/63u7Z/bJcDAICyi3CNUjRJ9/05RlbcjI/V6j+4HK7DQjRiVmfdUeGI3l0Ur/c3O+U+BN9RWcGnzunQv52CkjBkhR7pFWEMGOE61gjXn9rFAACg7KJZCErVRc/9hRRnyLfgnzgDRRVWVUOf76yWZ77Q7KeuHKxNaZ+VcLA2XXLulaWs084gAAAo0wjXKEWJSk+3hzJOb7AHfKqmob+9Xy8t/Lmmvurc2lQ19tYKxiM+/KSW/t+MDmr4zSY9M+aQ9iY75TdaUorst5uu9F3WAAAAKOMI17g5VfBX2jdeJzTu/F4Z5y4o23n4srAmmvpMuA69sV7TZ5+h1xAAAHBD0eb6Gkxau129I5K1/v6x2v3Y7zXsziYKCbIfS0+O17oXx+qVAu1qm6j3mGGK6RGlprWDFOCcRJeVnqrET5fod1PWar9dZLHnkaj37l+n0P8dqY5hAcaL79aSh6cpdcwcPXF3hAKUpcQPfq0B07c5U9nC7h2riY/FqF19Zz4Xs5R+2Fiu1+bolY+uUJ3bYKzumjZQjYOydPj9X2vD0ryvW/oaaOqHrXX6T+v0x7VOUQF2V3yB2zZp5u9OK80pvcyszX6kstY/+60OOEUAAAAljXB9Dezgm6XUE5kKMYJyAenxeuWuscpzmt6gWP3tyXby8WyLeWLfkJHL5Ym+ngC/f1+omjQ1grUj+cvdCvpZy9zXubhfy9sP0SvOaNivYrX0fwqbT7ri/zhUY94sJGBfPvHOYLyHvwwfq1R77AaxT1Y8ueBD/e97TpHp3khN/K86qmyNVFJowyBlJ3+ntALV2VJgaF2FGk/MNg4uXhzpTsBuPP7nGha6VzMnp1JDDgAAfCJcXwM7+Doj6Ylav3i2Fr55TGGjf63fP2oG2yztfr2LHnvVeY5p0By9MyhU+z98T+9tWqtte4yy5h01dPgEDb87TAFK1HtRD2mm/WyveWQp8b1f68kKE/ROT7N/DcNpI7yP3a97Fw5Uk0AjML/UXWOWGeX1x+rNVUZZxXQlfrBcr6x8w5pPWLsYDXxspHq3C1FA6jbN7D5B3ln1sput5rpfG8U+UlVbfrlZq52ixr2rSe+dVkbnW6QDF3Qs2au3kPIt9P9qfq3/XeA8uUhuUZ9ZbdUquIgto8pXVt36VeVvDKbt3KTnCNgAAMAHwvU1uBx8zZA7dKyWH7bLjRir6X9Zqx71ZQTiDhow3Sm+ooGa98lYtQsyQvKLRkheaZdenkfyJ3oy5tfadrnm2xOmvaZzwnW7GWs1794wpX48QT0n5g/GUZq1bp7uCkvVtim99OQHTvFNq4L6vBqjXg0vKiXpeyfAmrXU1eSfpxbauyu+cE1aWFmrRu6/thrqn9yiZjWytfczTx8mAAAA14cTGosh8VPvYG1K1r4TTjcYBYSpx5NztPLDDfr08+2K2+G5mQHZeYqPi5kk74xVnpicvENvmLXUPnS81a7ZDrl7jtfre25msLYeVWhT62k3uYt6943PtGXTNq8rNCYoRRe0d0NhzTuOald2pPo87IwW1b+N1yRYAwAAFxGuS9jAVxZp+qCOivA6mbEosi7max+dla54ZzC/KhWdgbLis2N6Y3b+ZhdGCL7cb3RB72/9Tg17ttYdzjgAAMCNQLguSfUn6N7oEGswfc86vTKyn6KjOji3WMUXVtldTGaTlNzXL3j71UvOE39sulZWoM4pxb40o28rvtKWtFv14KwQ47kAAAA3BuG6JN0ZobpWbXWytk2aqeXxXrXR9UNU9Rpqsq9kxyG7b4+IphOsS4uXOdX9rcCcfYXeBI1HtXpNgrJbddZTE80wDgAAUPoI1yXpdJayrIFQNX0sRk3MQbOnkOcW6R2zdw+XEuD6j/fZXec1fUBLV/9eI/tEXVvINnsLWbxdj/x5s7oP6egU3jwCb62qwHNnlOSM+1ZBd1T6Vov+9r3qdv2Fps6qq8bOIz8eA/Wz2M3GdtiuoQtiVcvucxAAAPyIEK5L0gdrtduqbQ1QRM9JetM8wfCtORrVp6XCKhrBO9N61vV7b46WfZpqBfmgxndp2HPz9E7+ExvXTrKf68vdHdXYOrkyQPW7PCS7IcvNo3NYdSktXbud8fyaPdZCU9+8Q5Fp53Rg7mYt25Wl0FY/16S1XTVxYl21beU80UVmn9cvzWvgboBv0FT169h9m1cIaafOj3a3hgEAwI8H4bpEbdOzz8zW+gPpyvJ0SmFeNTFxm5ZPfkgfHXPKrluylo/vpWdf/UT7T3jNq6g+3iZjEQ1ZOrx5xQ2+gIyhXwMNnRiuzl0rq1nvSEU38lfK4WN5T3AMqyB/3aJmg/tq4j3+2vLbbVq22X5oy7Ob9P7BC1KlqqpZu5rC6tvlUlUNeunnmvrqdd4W9tBTv6ir4EZ3aJybAfvQQn2yIdk8ddNSrV47ZwgAAPxY0M81bkrBvZvpqeEtVNesyM06pvXT/6HVO+3HLEPv0IL+DeR/JkFvPLlTWwq0x66gVr/w166/5d3/Alvdorq6oAO7nIKbTeXpuu+N7lazHvPqnav/kOd6nwAA4CZXIaRuvWnOsKv8/P2lH37QxYs5TglQdJn7UrSpXHm1Dzyh95Z8offjnAc8vjyq7J9V06nF/9R73zhlefygEwcL7nvZJ3L0/Qln5KYSpoD2I9T+6R5qVNk80zVVe9/6tY5d8SROAABws6HmGrjhJum+P8d4nYR6k1yGHgAAXDPaXAM3i+x0pR7Ypr9Pf4hgDQDAjxQ11wAAAIBLqLkGAAAAXEK4BgAAAFxCuAYAAABcQrgGAAAAXEK4BgAAAFxCuAYAAABcQrgGAAAAXEK4BgAAAFxCuAYAAABcQrgGAAAAXEK4BgAAAFxCuAYAAABcQrgGAAAAXEK4BgAAAFxCuAYAAABcQrgGAAAAXEK4BgAAAFxCuAYAAABcQrgGAAAAXEK4BgAAAFxCuC6mdk8u0t8+3664bWs1a5BTeE0Gat4nxvQ7NmhesaZ300h1fmu7HvmzcZsz3SkrAQ1+rxhzHsZt4KSBTiEAAEDZQbgupu6dWiqogjFQMUxRd/7Yg2K6crKdwUuZzsCVVNAdT7TR71b21Z8+/G/96c9tdIfzyBUdMubjDOZcdAYAAADKEMJ1MW3YulvpZkDMTNaOT5fbhT9ambrohN2LWen2gC8/qaxez3fRS+v6asS9kapb1Ty6uDaeTH3xQoozBAAAUHYQrosp/qUR+kX7Doru2E/PLnMKf7TW6vRpeyjjTKo94EOzgT9Xn3a1FGxk6oyknVr/r3POI0WVqHQnu2ec3mAPAAAAlCGEaxTZ3ve+1bFzx7RpwTsaOzpBSTTtAAAAyKNck7bRPzjDrqpYKVA/XLqkrMwLTkkZMChWf3uynYKcUVu64l/qrjFXqr2u311PPDVMMe0iFFTRKbuYJVUIMAauNH2UIqb+Xve0CFLWgXVa8+xMnXceuRncMeuXGtGqsnQuQYv+e6c+c8oBAAD+U1FzXdLunKA335qugZ28grXJCtZX00PNjGBtCmh8l352pzUIAACAmxTh+losG6tfRHVQtHWLVfwVzv2zRWnS/zygJmY+Tk/U+nkT9Ctr2n4a88wa7c+wn1W49dr7tT2TrAOf6MtPrUEAAADcpAjXJannQHWKMO4vJuq9Zx7S1CXbtN96IFnxG4/pzFXbLO9Q4vTu+tN/d9BbN1mTEAAAABREuC5J7cIUYt4n7tZMGiQDAACUeYTrUpD+faIzBAAAgLKMcF0KgoKs+msAAACUcYTrkpSeZd+HRqi3PeQI08C5A9Uqb59+AAAA+JEjXJekP+/SfvOkxZCOGrtwpNrVN2J1u4GavvoNPXFniK7eGZ/Zz/UGPfLn7Xp41iRVckoBAABwc+IiMtdg4MINeqLdlaub0+Nj9YuRy50xY5r5xjTRBafJOrFNu7I6GoH7SheRmaT7/hyjMGs4XXtiu2v7jeyOr08bxT4WqUBn1LfvtP6Xm7XaGQMAAPhPQs11CVv++BjN/iBR6Z5u9y6mK3Hrcs0YOYF+rgEAAMoYaq4BAAAAl1BzDQAAALiEcA0AAAC4hHANAAAAuIRwDQAAALiEcA0AAAC4hHANAAAAuIRwDQAAALiEcA0AAAC4hHANAAAAuIRwDQAAALiEcA0AAAC4hHANAAAAuIRwDQAAALikxMJ15vkMZWVecMYAAACAso+aawAAAMAlhGsAAADAJYRrAAAAwCWEawAAAMAlhGsAAADAJYRrAAAAwCWEawAAAMAlhGsAAADAJYRrAAAAwCWEawAAAMAlhGsAAADAJSUerodP2K99y+K0781/6Z8vpuiZ5s4DAAAAQBlTejXXFdJVNSxBw58+qhmRThkAAABQhpRr0jb6B2e4REW3O6dxw75Rm2rZOhMfpdvn+juPAAAAAGVDqdVcx8VX1oD36yvTGK5a84JdCAAAAJQhpXtCY3p5K1wDAAAAZRG9hQAAAAAuIVwDAAAALindcJ3mpyzzPvCiYqwCAAAAoOwo3XC9u5IOZxj3NY9q3IhMdalhFwMAAABlQal1xedRr8tpLR38reoFOqc2pkfqD6NCtdgeAwAAAH60aHMNAAAAuKSUa64ztfK1nWoTWEN71jTSH9b7Kc5sJgIAAACUAaVbc93yvOoHGvcn6ugP7xKsAQAAULaUbrgOzlGAeX+hnOKsAgAAAKDsoM01AAAA4BLCNQAAAOASwjUAAADgktIN10GXVNEZBAAAAMqaUgvX0e3OaWWvw1a4PpN6i10IAAAAlCElHq6HT9ivfcvitHT8brWpli1dDNfmv/o7jwIAAABlR+k1C7kYpDMnb9W6V+prYoJTBgAAAJQhpXyFRgAAAKDsorcQAAAAwCWEawAAAMAlhGsAAADAJYRrAAAAwCWEawAAAMAlhGsAAADAJYRrAAAAwCWEawAAAMAlhGsAAADAJYRrAAAAwCWEawAAAMAlhGsAAADAJYRrAAAAwCWEawAAAMAlhGsAAADAJYRrAAAAwCWEawAAAMAlhGsAAADAJYRrAAAAwCWEawAAAMAlhGsAAADAJYRrAAAAwCWEawAAAMAlhGsAAADAJYRrAAAAwCWEawAAAMAlhGsAAADAJYRrAAAAwCWEawAAAMAlhGsAAADAJYRrAAAAwCWEawAAAMAlhGsAAADAJYRrAAAAwCWEawAAAMAlhGsAAADAJYRrAAAAwCWEawAAAMAlhGsAAADAJYRrAAAAwCWEawAAAMAlhGsAAADAJYRrAAAAwCWEawAAAMAlhGsAAADAJYRrAAAAwCWEawAAAMAlhGsAAADAJYRrAAAAwCWEawAAAMAlhGsAAADAJYRrAAAAwCWEawAAAMAlhGsAAADAJYRrAAAAwCWEawAAAMAlhGsAAADAJYRrAAAAwCWEawAAAMAlhGsAAADAJYRr/GjE/Oqotk4/py7OOADg+g1/PEl/fzpTzZ1xANenXJO20T84wygJU1corneEM+KRqPeiHtJMZ+xGifzVdkWHOSMeyev09ps3eskK6jL4qGLvO6yKFxpqzdS6mnzEeQD4D9PtN4t1b30paeNwxa52Cour/zTN7tbAGfE4pI9GTNNGZwxlXbaWzt+l6GrSmS9aqM+ciroRX68Vb+2gpuGVlH7wH/o2OcspvYJywaoVFaU6FdN0KH6HTmc65cBNgJpr3Px+fkqzzWCdXV9rfk+wvqLowXrk+bmaNflBpwDAj1dddRo9Q0+9PFf9o50i1/lryNwmOpCdraptE7TooUtOeSkKbKT6RrD+4dxBHS1KsDYENLhNdW6RMpK+cS9YVwhWtSZR+kmbRqroFAHFQbguadMfUnRUB+e2TolO8c0g4c0OenuWc9t8My2Zt2wtfehbVVWQDmw0gnWCUwzfGkSqWZ1g+fHJRlGsnqaJI4Y7t/VKcopxs2ioiJ/UVe1AfyMCl6CEII1YEqkzSlfjHsc0o55TXioqK6RphAJ1Tsf3JapI0bpShBrUqyydT9Sho+ecQhcE1lSdWsGqdOGcqAjH9eAnGDe1Lo8mK7patpTUQM+/ze4KACXhyOZQLdtTTfI/rJghmSqtfO0XdpvCjJycefQbncxwCq8oQNV+0kiB5c7r+P6DynKxYWuFoGDj1Y3MnnHWLgCKibSCm1imRt9xzLivpc1rghRnFwIASsDLS8Os9tYVm3+ncaWRrv3CFHZrsMplJ+twYppTeGUVajdT/apSzvFv9F26U+iSSlWCrfuMdBdrw/EfqZROaAxTj9FjNSgmShGhQQqoYBRdzFL64Xite22OXvko2X7aZWF64Ne/1gPdWimimnkcabjS852TBpM/6Kcxu0Zq1vAOalI7yH4sPVnx787RmD9us8e91e+uJ54aph6twhQS5MwnM12Juz/Rmj/O1Jo9dlEe9ftp4nMPqEfLCAV5GmWZ08Sv05IXY7X+sFPm0ySt3BGjiKKc0OgsW0y73PlknU5U/AdLNPulDcq/xq5bhxUa3CWiCCc0hin49l/r9natVCfYWWc5WUr7Ll5f/d8cHTrpY8n8uqtBt2Fq3TxCnknyO/t1rP7y/nJnzFbvgWP6e58kY5maa8hTVYsQroMVOWiM+tzeWLUD7ZKcjBT9+5/vaPmyOJ23iyw1+k/T090ayE8Z2rn0aS3b6l1lUlddJk9TTEN/KTVOc3+9SEet8mgNemmE2vjv1bKxi5Q+aLz6RzdQDWf7pCdt0rL/fVsJ39vj3mp0GaY+90bpJyGBxjwNl7KV/v0hffbuPH30ef4fFWc+VewTy7a2H6wh/91ZEcH+1rQ5aYe0cfkL2rjTXubIx+dpVGvnDV/J4fWa+NtVzogjsJnaP/ygujStq9pVnD+es9OUtCdO/7d8lc/38h8repymDm8lfbVIsYfv0dhfNlZQ+Wwd3Txfc7fX1ZCRD6pldWP7fL9DS6fP1948tXCBathnhHp3bKaGxna0GPvAqWO7tHHlEn2+z1eVnbM/RzXI3TbGNDky9oPyBU9ovNKJjp595MonQT6osYt6qGFRTmi09pvB6taqrmo4i5aTdkxfbHpb7/zfXmMZ3eHXtJf6DrhHbes6TZ0KW2eBnTVo+jC1MbJRztFNemH62zrlPGSJftzYdlEKUrYS/jpeCz5wpnVO6DyxZbLmfh6lBwfdq5a1jM+oOa+MY9q5/m2t8vV+AqPUZVhfdWru9f4z03T0679r9Vvv60T+zenMJ93Yd6YvSVP7YYN1nzFtkDntpQwd3b1OS+evd5bZsx2uxvjuWjxGxldbHpWM74v+vaLUrFZu87DzqQf0+d/e0f9tuvq2mTJ9twZFnlPKtnbqNN/6tiohfgpq1lG3hhhfs3v+oaOnitDW26+26rX7qWr8cEIH4/+lsxed8mKrrrrRbVTzqm8zRye//lTHTjujZu15q5+rQdVUJW3/Smn+IQqJaKTaNYKsdf5DdrpSDn6tYye9fnWCInVb6wYKOLNf/9p1RHkWPaCebm3fREEXEvVN/MGCTWNuqWm8fsTl19elHJ0/e1zH9yco/cINaCOPq3I+eiWpo5544w1Nf/QuK/BawdpUIUBBER018LGhToFHR01avUITH2iXG6xNnuc/v0jzfpW/iwtbaPQiLf1199xgbQoKU7tfTdO8Qc74ZTGatXC6BnaKyA3WpopBimgXo5H/M9Ap8HKnEY5XTdQDXoHXYk7TaaCm/ylWA40ft+tWf6DmvWEvm/d8AqpFqOOg6Vq6cKARcW+EjoocvEIx97TLDdYmvwAFh3XUncMWqW1k/iUzphk4WXf+rPBgXZhBLVOs+yP7qhQhWDc2wsULGtUlN1ib/AJD1azLCE39zYOq4ZSZTq1+QUu/MkNtoNr89+Nq4zVNjf4jdZ8ZrLONkPGaJ1h7qVhTP7fmlRusTUENu2rU0yMU7ozbAtVs9FxNGtRZzTzB2lTeX0EhxjI/+oLG9m/sFObnr9rG41Mf7apIJ1ib/IIb6N5Hn1a3vDMqhlaK+c1T6u8d3kz+wWrYuocGDSyxM6h+3ILu0aheZrA2R/wVHhWjIQ/3tYK1ya96lPoMbGaPWIztPHmuxt7XKjdYm4x9oEZ4lPqPn6H+nfIdHBlhsc/vnf3Ze9sY03gC0w1jBVlzv8kNlia/4Lpq3+cpTX68c+5+fh38Oo3T5Al91T7c6xwCzzqbMEODvNdZxhYte3W9krKN6cK76pGHvT5T5vL2M4O1cQD81dt63ROsvQQ2GmnNq00dJ1hbhXXVps84Pdoz37ZpZITfPzyumNb53n9F43MT1VdPTX1czfJNctktURo101h3xrRWsDaVD1R4a+M1H7/+z5tfz8maZHxftMx33kUl47umy4AHdZczfiXPfxlq3Yf+5KzxK1lyKtRspgYhfsr57l9KLkqwNsP4T5qqhl+OUv+914VgbQiorFuKtLOe0/k8u42//M3fsx+MQ5VqP9VtUa0VHuoEX0M5/yDVbNoiz++Dp8lJVnp63mBtqhKsKsbdD2fSCgTrgLA2at6uZZ7XV3k/VapqBPKoKIVUcspwUynxmuuOz6/VSz3NwJWl1Pj3tPC1FXovPllh7e5S93sHqndkovoOza0pbTdjrebdaz4/XYkfvKHZry1X/GEzIA/VE4Nj1MQ4ylXqNs3sPkHvWVMY8nR3lztdcu2RmvSHoWpXzZj77jd059CFznMMoxfp00dbKiB9v9b88RUtf3eHjKVSu27d1f2hGLU7t1Z9n/CuSY3S9L/MUw8zPKcnav3i2Vr4pjFN/SgNHPKEBvVuohDjwCF160z1fGKdPUkBRam5DtMTy1doYNMApR/YoGXzlumNT/cbgTtKvQcM1cg+7RRSMVXbpvfSk5dXgAuKUHMd0GWt+newt83RrW9o6/blysoJU0CjoWrfw3hf5j9qadu07tUJulwX22apHurRRBWyUrXv44X6Yuc644uliaq0Gas7726nGgHp2rOyu74ocD5ltpYu2KHooDraPCtCI3Y7xYUIN0Lo+PahykndpXWrV+mznceUo2DV6Bxj/LB2VcPAbCW8P14L3vP+hoxW/xdHqL1Z23XwHT03633lNBqs8RO6Ktw/TTuXTs5Xo+2pUbbHzn+3Sx+tXKKtX2crqOsIPTmglV0z5j2fLk/pt4OaqZJRfuKrdVq+/H0d/d74sWvRQ/f266tO4cYvbPYBvfvUDOXOKu98dPaQNr67WJu3HFJ2014aMrKvmhmPmbVtL75lNpvx4ulazVctdX7djGXrbyzb2b169623nXUWqKDIKLXtda/anl+nuQuvszFO6O/0aq9WxqteWcbexRr92V/skWJM0+GOFRrVrLI1XLhz+ur9h/SSfcx27Zyaa+vQPW2X/jR1h9r+bpiznbKVtPEFLatkfOd0MsKJ1/oPGjRDU7vUNYYylLR5ld54d4vSM4z13ClG/Xv3UDMzlH+/Q3OfmX/5QO7yvxGZKdr50Sq99/EOYxpjv2kYpXsfe1ydat2omutAdXp2rvo08tf5pE1a/fY67U4yPu1GEG1494Pq/8tWqm18dj6fN16rdzmTFEdgL416sa8i/e11tuzDLTplfG786kTpjn4PGsE2VH751pkpqN80Te5h/iOVoq3znta7u4yD2yde0CMtApVjbJMXjG2Sp0bbuyvCSxlK2GLMy9w+FVvp3jGPq1t94/OZZz51de/zM9StjjGYYXwu/7xQG7canxvj/Te7b7j6/KKxahgB6NSOlzVzodcK8J6P812weu0mJR33V+TwyXo02ng/meY/Yi9qp/Msm+e7wHctdV51FfO7GepSy3j9uLf1J+N9mOtM1RsoMuoedesRpr3G98xm+8mFC0zX31/7l+qpvtYMCtdkp9hVFUIU3q61Qsqd1Lfxu5VehL86ytX4qZo1r61yqf/SN3tPFAyo18tTs2y8/i7j9a+spsJ/3lIhOTnKqeAnvx/O6WTC1zp+8px+KBegGj/9ueoZvyupezfpaKo9RWDknYqs46dT+zbpyEm7zCOgYQfdVr9gN4QVQlqqabOaqnDhhA7vO6i0c+f1g3kcUqGSgpvcrobGwUlG0mdKOEwzlpuN17FtSRiogXfaNZnJG3+tniPnWMHaGo//RG/8bkSeYC1118Dbned/ME0DppjB2hpTvBH4fvWbdUo0P1HGDte9QE20KV3xfxx6ebrk+IWaudWeX0CQmcq9VKpoHUWa7XpT9pnB2mTMZ+MbmvlIv3zB2tBzoNqZwfpistZPeUhTzWBtlh/eoeW/G6KpH9jpMKSV8R6soWK6Y6TuMoK1Tnyiqf2n2sHaZMznvRfHauoWc64hanp3d7u81HRX89vsbXN8yzR9vMUM1uZYsrIOztQ/jB/Z4+Z4cEs18e7W+5YAmX9WnD+4Rv+0grVpv87uHKsvDppfIkGqYeaOAi6oppVi/HXyKsFa6qpuLYxAY/w4vfPbl7XVCommNJ3a8rZi39+r88brRDTvapXmitNqT21XoxiN7tdZfR4zg7WxJ331jlblCdZ5pe9bpbnPGfP62jyMyFD6ppe17Cvz+f4K/0ln6zmmTh0ijWBtPP/rtzV3vh2sTee/Xq93py/RTvO8Gf/GRpj1HSXN+cx8cpo+MoK1+Qdjzr73tfmAvVyBVa/+x/EVVQwwltZ2JtGzzoz3krBFm1+efP3BuszK0O71i7Q3Y4tOONsz5/AmvbH6gE7lrd4yNDP2TXMHz9bRTXMVu8wM1ma5sZ63rtKfXrH3P1VvprsuV1z2Urfm5v5gBKplT2vZB3awNp1PMoZvZDcG4X3V3gjW+m6L5s542w7WpoxjSvrgZS2IM49cghXZ3rvm/toF9elgBGvja3Crvc6skGjIOb5DW+fP1dbvjJHqDdU+31VP0td6/pEKVaeHH1eznuM1xAjW5r9QG5flC9beso9p88KntcCzfb43DpznGOHXfMyYT1vPv0TNY9TWDNbG8z96xfhcmsHaLDfe/961MxS76ZA1XqNpV0Wa5fmZ83l1vF40vguSjpszSlPC4h12cK9Y2fhmvx7V5Of8M5xjHJSdcdaZvj+khI1LtKAowdqUcYuOWG2Zz6veHVaJ6wJv/alCjO17+tu9RQrWKldddX5S2wixqTry7xII1oZrOpnxlsrW97r8jGCdc1IHP/9Mx74zgrVZVXkpS9nWe8rRpcsLWkmVgswq8nSdL9BOvLwqVTFfLUvn0r3qrSvUNN6zEazPHdS+Hf/S6XRPsPZThVuqqJJT5Z6V6d3gETeLkg3XPaN0qxmQMnZr/TM+2jwX0E5h5rfLxf36ZIqP5382U7usDBukUF/fXImfaMybdkz2SN6XbOzOPvx5veLN9lNBLTXqjc364K05mjiso5rYjxbULsz+4kswQu+nVkke8dN3293sBYXKO1tes04RdpOP2nfppR3bFZfvNq+bHXBDaje17ktPO4WaNWw5+7V/q49tkz5TCcfNgSAFe4flC1nWF2GlRg/o9jYxVtCWVXMdq7aN7MObrAvWnW/pFXXAGSxU80iFm1mkYjP1f3mxZi/KdzNrZ42H/YLD8jXZMBxcpVfftcN3wx7D1MnYyGYNV+z8LU7Y9CVDCVs97SNzJRy3q0QrBVaz7s1ap4haZnxN0a6Nvl4vTp/92w4nNWq2su7zKmQ+88dYXadNn3+d4ffjT7XbnH2VZhry+3l66ukR6tS5gf2j4ZaU5zT6jd4acpXb5VprUzGm2f7ZQz6fk/d2HbXW3s4m6PON3iE6W3u3r/L9PaNWqmd+cRjh7vOVPvbko6u0y/rKClQNT8VmdKRqm7tN2l59drMd3/ysoWqb97U6a1L+z5lxm9rZblJQNbSwpk5F06q+/Tq1O00uMI/Zi8zaWfPRYNW+1XqalwztnT9Pm83wHRylR/6rsfyMALvTPEfhoP0Mn47v0jrnHIbLMhJ0wvp4Bqqqp7lfizCreVnO4e0+Xy999V47KFep5vt3wNd8tEqxVleI13vhnr3avNMM98YBfpen9LsXZ2jQoB5qWMf3gfvVGUnO3A/dFhSp+nX89MOZ/Uo+UZRkbXy1R9ymmsaypBthPK1ok1yzazqZ8ZZbnH6wz+nY7t06m2+Z0vdu0q5/eLXRLldVlcw/1nKMcF3g9y5YgfbfYTrvlesr1G6gECM/l6vcSLd16qpWP3duHe7UT9u0VC3j9X44e1DHT9Lm+mZUsuG6WoBdO3wxs5AfnnwG1bUDbMYZI474lvh9kV7p6g4v15ihs7Xmy2TjeDFAIc076oExc/Tm52bQnq4H8tWIDLRSv/GhSXf+4ykgUSluLJp3+++bSURdq02YMs+osOP6M6d9rICdC/WF2XIhIERNe0zSQ89u1+Bnl+r+HmaTECNYJ6/TP/P+D3rtqgZe129AzsZF2nj5RNQUfbb6CjVcV3L0dL79vKFqWCstQ+m+To41JKQ6NX83gtlOdep8rdtzzDi4CFTtyGj1eXiafrvADNqDFem0IUZBZmVzrmzlFPahiK5rt/XPPKfC/mg+ejp/2HKcSdFN16175dy2/yWpkv/1fKIPaN17Oy5/FnMS/n7Ff6EKt0OnzjiDjsiadug/n17YL1SSThWh4rOknFo9TS8s26IE42vFbAPfpsuDGvv8PM0ygnb/+5qVyra7onKVVbNJA1X8IV3J/z5yhQoML8W4wMy1q6xKVc37NJ0rwvarEFjZqii6eCKhaN0HVgmyfz/Tz1j/QOZRvbZqmBvmnBG8LzfSLa8q1e2wn98P2Vk6f+aEju7drt1fJrraFSHcU8LNQq7Rp6fsL8TAqrK/wgqKqG4d4rnj8FrNfqSf7mw/RE/OW6Nte1KdoN1dE2Nj8zTv+OSE/VUdlL95yWURCnVx0ZS4zuviMz5uA2OdJ5aSI6fsUF2xqv0l4UPVaj5WQPUYM5crKy1Zp87lfjFePJ+qxH8u1Lo3Zxb8svEWlKki14Gd3aUFly+I4eN2udePvGr0H6/7zJqpbLMnhlB1enRc4SckXYFfRE27Pe7ligTjPVsrLVBB+Q7WPCJDfH+BlpqMHVYTkN+MGq+Zb72jrQkpTtDuqlGTHvf91/a1MNtPD31PS69ye/WO+50JDMWYxmxz7es5eW8r9GRhXywlZVeKrHxWsbJd4+tDeLVCdrbA4IL/tBSTv9NcwDVmm3JfnzHn9uys950nXh+zjbiv17dvI7XgA+eJ3swTGP/b7hkkx2zyFRmj0YWeNHwlnVXbOsDMNr8aLInOwXCloMJ2JM8B9Y1zarPZBMTYBlPma9nmXTJb7tgnm47T6H4+2+AVwogHeY8ir1tAeHPVqWR87RzZo9QitWYoxgVmiqNcFVW8xbjPOaesIszEU8uddrqwyra8Ljc5OZumPFnYPNhoFGb/o3v+nNfBRiX5mctjhP1Dn5u14Lm33Z/9Q//e9S+lFm0F4gYp2XC9bL+OmW0Cglrp7tF2c4YrOpysVPMosEITtXvKx/PvnK521n9tqUqOt0pcsl/blszRkw/30p1Dl2u/uQzVmqqjV7vu5GNm8DZEttNEz1+EXjo+H2X/DZiarB1WSTHFG+vAvK/f1Od8bpicZJ01/87ya6KIKB/bpvp0RZptEY2lT/H6u7ROl46qaRwyffu3fvowtsvlK0Ku+GMv/ePvb1whWAfopHU8U4R2f3EJOmH+CFRpqLa+Wldcgdkjwdhu9glQm+e8oI2HjRcKbqUhT/S6xlqexrqrqf2De+qE50SmBJ2xajVC1ayzjwUzQsAdPzG/pLN1ItHl///NXiWcwaIx26e/r3dfeFq/+fU72mu26w1upjvoMOT6ZJzUKXNd+jdQy94+QnSjwWprfZxSdORrq0TmTmNlmqo1FZFvkhq9J6vLVb4X/Mrnncjcx/ub7Y7d8LVxwGje14lU/g5O3LT3mF0zHN6o7zV/DrtNGGx1yXd+3zuavnyX8e3jr4bdRqrPNX83RCnSDMrZKTrqfKnnpJy2vrP86rf2+f5rDGhlHxAZvwN7rRIXXeMBktk+feeylxX71Bi9aLWFN9ZD8zvtB68oyznfpZKOfGYVuMO8qmLDIJUzr6p4qGgn4AXUa25dYCbj8NdFvMBMMd1SSVaWzb5QhNp0Ty23r/bTvl1ucnLW+337qUrTKNV12uFlnPP1BsurfDlnED8qJVxzvVZb95iRNEAth72hlc8P1V3tnGDWvKOGPrdI77wxyR63LNTHe+y9tcl/L9JrT8XYJxGavXj8aroxfXeFmV8widu03FeNxTUYOH+tPlgdq0nDuqvj5VrFJup4R5iqeLrP8T5r4tVPtMtcNCP4P/CnRZrYJ8puG232FvL8Ck23ekQxFm3rcq23horpg0+0z0zX5nzeWqFZYzzroIjunqP739quR/68Xf1/O8HF9rMLtT/B3jYN7lmk6DYxCrB+9czeQqbr7l91Vx1j/GLyNu3x+v+7SlXzeD1I4a0mqEbt7qoSXGir9nwq6shJ86/hFNVrebU2ZcbRvBmKFaz2I1/QkH6dVaMoTRqMcPtgP7uHj6ObFmrdwQPauGxT7gmOV+giL6hB1OV5VGrYWfdOHq97rZ4/Dmnr/3l+Vo/pk13OCU5Rj2v8kNzlqtSilwb9xggB5o/32b3aeJ3782WnztkHLOHRGj2os4KuEIAiR7+gSZPHqUvnZl7rK1g1zHal1jdDbo1dsZXFNtfXZL22fmP+aPor8pczNKRnlLNNzN5CBmvsE/YJtDmHd2ijp+nQnji7f3H/xooxgmK4uW2qt1Knx1/Q070aF/qZTs2wN1Z41AirSzlzW0YOmqapQ5weTtxgLNte8/vJWLY+M6cpppvn/RRREb+fjn6eYIV4v0a9NHXyMLVpU7dIIbvGgOF2Dx9nd2n5q+t1fusirb58guMV/pGqEqqWkc48zJ5Peo7T+IH2ekv/+u/aapabNm7RN+a/Ueb7n/qUOnmWy+wtxFjX47ua49lK2rnO579k1y7JOUAPVMte49SpxZX+6XpQo14y9rEhPRTpeS8GvzrNFFndeeNFaZ573zn76ownglRYv1fXrhhXVaxYT+FmGL9wSIeLGMavm3+wAgOvEosu13L7aj9dCOcl/So6zT4rVldIi2jdGuqnizl2nM/K8q5qOme2JDMEqU6TCAXeUsJRDa4r+YvIWH02j7W6w/PJbP7Qz6vHkKs93+w6b8oQzfY+qdDTFV/+1zINitXfnmynoHyPDVy4QU+0K/wnJ+vAOj3Zf6a8K8jDfhWrpf9jvJYznl/6vjWaOnCOvE/3m7R2uy73EliIxPc6aMB0Z8QQ9qs5em1UR4V49ZGZV+Fd+TWetV13Xc6EqfryD720w2ct/yR1ezZGVmVzoRIVN+uh3HaffgN1+8ixalrYCji/X/94c4gSPWepGwJuX6H774mw/hLzJSstUV99OFX7kpxeUbzUG3xUf7/P7PalCBeRadRXo57opchCf+jzd2Vl9ov9tO41fojzX3Qi9wIz+bvjy9dFXgFp2r12npau9z5xLXc+PmWnaOvyaXrXZ5d/Rel+K7/c7gULyNc939UuPnM+ab1emFHYiXr/gTxd8ZnNj5582fpc2N3feW0nX10hWv1C2xc48SnjgN59ZYa2ev3jk9ulXD7Gcz8/XFftm/roVu/yhVLyy1CScfDZsH5wod33XUn+afw6jTCCZ7R90qVPhXflV/Tvp0A1e3SahrQPLbgOPPLtz1a/2NaBhLE9vC8M5bX+C3THl6eLvIJyjm/Rq7OWKMnr45k7H9/OH3xfc2e9k/e8DV/7RREVui8U+E67ysVnLqXp8zfGa/VVvk9GP/uNxrU87epFZCrUbq3mPwnRxeM7tadIV6byU/BP71TD6vkv3lJSglSz3e2qa1Vf5+XdnZ7F02Xf999o97+S8zbzKETFiA5qWq/goWTOqW90KKOhGhmPpe4x5uO90wRGKLKNeUDijOd3/qC+2VGCTWVwXUr+cMg6cXCqlny8X6ne3cxcTDd2pk+05LU3nAKH8/zlWxPzdjllXgVx63JNfThfsC6m5X+MLbhMBusqiO/O1qP5grUp+c2xGjJ5ubYlpivLq1bbnGbbsqkaki9YF1fymxPU89mF+mRP6jV3u3Vg/TalOkfT6d98rD1uNp/JWa5/LpyqT79MVJr3psxK1/Evl+sv8/MGa1NWwjYlO5UOF7OylHUh7/oOCI7Q7Q/N0+0FLj4jHXmnmvaYlXFhxzX653ZZoQ6+owWT5mvdV8fsv+GvyPjhfnyMHXjNLrreyns1t1Or37KbhyhYbe4fcfX21+ZV447u0Oo5k/MFa9MBbfzt01qw+YBOnPWqBs7O0ImETVrw3NP5gvX1itPqmYu0MSFF6VepdU5YvsgIIPZyef8Val5pb+f6RZpJsHaHdeLoi1q9I+++aV7RL2nHO3pxUt5gbTK7lJv77i4d9ewal5z9Zbrx3LRC9pe4+Ypd6zWNwbwy38bXJyt2n3snzuZsXaQX57ytzUXYx/Ir+vdThva+/rR1ct7e1AzlXK3GtdGDGu2paf5qVd4TGI31v+ovZvMQI7LV76pBRWh/nXM2RXs3L9L0KXmDtSln68uaMecdfX40Lc9ymZ+bz999UdPzB+vrZO8LO5SUlvdzWtA6vbF0vXYay3Xee7tY3zVbtHTu5KsGa9VLV8xtZpIN1/a/uhOszasq1r01ROWyT+jQt0UJ1kYYr9lM9aob6/S7f+l4iQdrU7pO7vpKx8+cy7NNL2adK/DvXaHtp68gM2mXklLO6aIzgXkFx5MJ/9S+PclWkxSzpvpC/jaSGYlK2PEvfZdvmfDjUEqXP8d/po5q9sgcRdWUz8ubV6gzQR3++wFFVDa+xBKXa8XKgidpPvB4omZ0PG4cdP1UI54NKlo/rSXmemqUAdx0rqNGuSwa/vR+PdP6lDJ3t1GrWYX+dXoNyqtKk5+rUS3p1L5tOnLy6i2ai3OBGeBmQ0MelJygGDUwgrX592/C1nwX5TFcPD5HCUev/KfWmiV1FWdWOdU/pGcGc/gOACWhXpcUjTaCtbIbatkrbgRrQ7UmalDLTz98n6BjRQnWhmu+wAxwEyJcoxSEKPIXk1QzJMoZN1SOUfg9K9Spid0a++i/11r3BWRU1OQVkTqjdDW+76CWdnHKAQDuiEzXomEJqqpq2rmqrv5QSMuja3b6G+0xu4/7V3KRr6qYkfCp1eXcoSJeYAa4GRGuUXLS12hfkl0zXaVRjHo8Nk+DrYvIGLexk3T37RFWbwFZR9bpnzvyXlnT25HNoZr4f/XNC9UrethRzbBOZQcAXL9sLR2/X439/XXmi1uN71qnGECxEa5RgnYoccVj+vDjeB1Py9JF71YdOVk6n7pfX/5lqla/fZULyRg2vx2ul7fV1ZE9oVp2xCkEAFwnf20+WF0pX7RQnzkVxdcrcP04oREAAABwCTXXAAAAgEsI1wAAAIBLCNcAAACASwjXAAAAgEsI1wAAAIBLCNcAAACASwjXAAAAgEsI1wAAAIBLCNcAAACASwjXAAAAgEsI1wAAAIBLCNcAAACASwjXAAAAgEsI1wAAAIBLCNcAAACASwjXAAAAgEsI1wAAAIBLCNcAAACASwjXAAAAgEsI1wAAAIBLCNcAAACASwjXAAAAgEsI1wAAAIBLCNcAAACASwjXAAAAgEsI1wAAAIBLCNcAAACASwjXAAAAgEsI1wAAAIBLCNcAAACASwjXAAAAgEsI1wAAAIBLCNcAAACASwjXAAAAgEsI1wAAAIBLCNcAAACASwjXAAAAgEsI1wAAAIBLCNcAAACASwjXAAAAgEsI1wAAAIBLCNcAAACASwjXAAAAgEsI1wAAAIBLCNcAAACASwjXAAAAgEsI1wAAAIBLCNcAAACASwjXAAAAgEsI1wAAAIBLCNcAAACASwjXAAAAgEsI1wAAAIBLCNcAAACASwjXAAAAgEsI1wAAAIBLCNcAAACASwjXAAAAgEsI1wAAAIBLCNcAAACAS8o1aRv9gzNcNvWfptndGkiH12vib1c5hcUUPU5Th7dSkDNqy9DOxWO0LM4ZBW4Sg4ad0P/reFyhgeeNsfpaMyhck+2HAABACaHmGmVK5KDJGv/iQo3q7xT8hxo+PkFTun3rBGsAAFBaCNfXIu5lTR8xXBOt2yLtPOuU46YR0aixwoP95e+M/2c6p5jWKcZ9kFK+aKnJY6PVlFprAABKBeEaKGt+fl71zKOLU3U1d05lrTllFwMAgJJHuAbKqnR/rXEGAQBA6SjBExof1NhFPdTw8Ho9uylY4wdEq3ZF4/f+61Wa8XqK7pswTF3qB0oZh/TRK9O08aAzmSVQDfuMUO+OzdQw2PmD/1K2Th3bpY0rl+jzfRl2WT6V2g/WwD7R+kn1QPk5hw052ZKf+RL5Tmjs9pvFure+lLRxuGJXO4WOyMfnaVTrQJ+P5YrWoJdGqE2VIpzQGNhM7R8erG6t6qqG83Zy0o7pi01v653/26scu+i6+TXtpb4D7lHbusH2+y90nTU23v/Txvs3FubsLv3puZe11/vhcGPbTTK2nfHwqc9f1szXd9nlzsmhJ7ZM1tzPo/TgoHvVspazrjOOaef6t7XK5/u5xu3pzCf9q0WaviRN7YcN1n3N6yrInPRSho7uXqel89fLrpD1bAdr5Ip8bs/q0bp3SIzaNja2jbF/mnIyUvTvnR/p/T9v0gnfu9rN7ecp+ufoBFVN+qmaTsp7+i0AAChZJV9zXT5Sjw60g7UpqMWdGjTCCdamwAbq1r+XPWwxgt/kuRp7X6vcIGYq768a4VHqP36G+ndypr0sUM0efUFTH+2qZiG5wdpkBesbKbCzBk1/Sv2jcoO1yS+4rtr3eUqTH+8sP6fsevh1GqfJE/qqfbgTrE2edTZhhgblWWcHtHHO29qZZgxWaaWBo3t4LYOx/od3tYJ1jnFAssATrL0ENhppzatNHa91HVhXbfqM06M982+b4mxPxy1RGjXTWHetnWBtKh+o8NZG+H882im4DoG99MjzI9TNCO6eYG3yCwxVs06DlWe3BAAAKIKSD9fhjRWpQ/po1hh9dNQsqKuWzQOV/tUS/WbtXpl9GfjVijSeYwsaNFz3mslOGUravETTx5knD47R9KXrtfd7o7h8sNr3HqZw69mO6BHq3z7UCIjZOvHVO4qdMsY+6fCZaVrwuXli140SqE5PDFabYOl80iYtnTHeXq5xkxX71106kW2839Z91beV8/TiMkLiowPNLgLtdTbzGfuky2enzNe7X6UoR8Fqk3+dZWzRsrU7lG4MVmra93IorjFguLqZNdppu7R0ziqndjivoPAGCrqUoQTP9nnmZW08bLwZ+SvyzrzzKdb2dAQ1jVJkoPc2Ha8Fceb7MR67rbPaWM+K07In7fdr3j46bBVatdSeMs8tf611UL871cwI1TnfxeVuG2MeMxeu0uakNGVfdJ54HTrcsUJLh753ldsKPRnqTOCGoEuyjhUulvzHGwAA5FUqv74n4t7SxoMZSkxx/mM/u0vL5m/R+bTsfE0Imqlbi7rGfbaObpqr2GVblG5NkqH0rav0p1fWK8nMcNWb6S6vistOdzWz+p42A/uL899X0nFnPt8fUsKZG/i/fnhftW9kBMvvtmjujLe12whsloxjSvrgZSsoygi+ke2b2eXFFNSngyKN2ZzYaq+zU2ZoNeQc36Gt8+dq63fGSPWGat/cLr8sbr5iNx4ytoERin/5tLp0GqFRXesaBylp2vmXRXmbinjLPqbNC5/WAs/2+X6XPpqzSUnmY8Z82l5OysXbnpeZ83l1vNc2TVPC4h2yjtEqVlaIeX8dqnpqq7Mz9N1JZ9sY8zi1Y73WGWF7wVqn6EekeaNMxXY9aYRrfx05WMkpBQAApaUUwvUx7Vx7wBm2ndi5SgnOcF6tVM9MTNmH9PnKvNNYjq7SrmRzIFA1GlglhmhF1DJrRtO0N+4mu5LLzxqqtnlfq7MmLVqs2fluUzvb1ZVVQxtb98XVqr79OrU7TS4wj9mLZqhLLfPRYNW+1XpaHqdWv6BVZptn/waKGRKtGkYQTto4T8u2FpasDcd3ad3OfI9nJOiElU8DVbW+VWIozvb04ms+WqVYq4Z5mjY6JcV1dNMOK9z7hXfVUy/N1djHB6tNG/Pgwj3bP3tIQ97ofZXbQ3rpev9gGXxU+5bF6d3f7lR3Y6c7s+82Pb+EmmsAAEpbKfz6GuklXz66kHnMGconuq4R7gyZ53TCKijo6OnCQp9Z4+gM3iwq+7sa1ApTyd88uCgu84TMLUq65Iym7tDq1T6C8FXt0KkzzqDHdW3PUnDQCOpz3raagOSUD1bD1l01aPQMzVpgBO2RvVS7kKbgN70Kbp0iCwAArtXNVbW1K0VWPqtY2a7x9SG8WmGJJ1BB+Zs9FJN/BWfALWZPJV5tf/Pfnp31vvPE6+OrnXHubaQWfOA8MY/G6jamqxoae0JOtnEgFBKtUcU6ybKzalc377NlvozlurZnKTm4yWoC8qzZDn71Ju086gTtqL4aP/7BfJe6v3al1ub67XA1HRStPi+01M7TOara9BtNGeY5YgIAAKXl5grXGSd1KtO492+glr19hK5Gg9U2zBxI0ZGvrRJDmjLMacxmD5H5pmnUV6M6+mpvkMuvfN5pzF43+rdwKfB9nWyfEFgnUoV1iOGGvcfsNgXhxvu9tlAcqGaPj7G75Ptui14w200bwTio9WAfvX5cmV+nKEWa3eFlp+io5x+EYm1Pd+TfrldltoPf+LaWTR+v5+bEWTXtfg2b6Q770R+NPV9V1oD36yvTOMip14hLnwMAUNpuskaZ67X1G7OZgHmC3QwN6RmlICsjBSqo02CNfaKrwo0cmHN4hzbuMctNe/V5otnY15imx9O6t0WwMRys8J7j9NSEXsqftz1SM+zq1fCoEVaXctaJhYOmaeoQs9cNl+yJ095U496/sfrMnKaYbp73U0SVByoqdrMe+fN2PbJ4qRo3ccrzOfp5ghXi/Rr10tTJw4rcbtiv0wj1b22sr+xj+mjxEp06uErLNuee4NitkfPE/KqEqmWkM4/AumporOvxVm8lZj/mf9dWs9xSnO15fS5v12hjX+h05fXQbfI8jR9nrK+oxrnbxXg/4ZHBxhLaPJXwxVVqba69pZc3wrWhAjXXAACUtpK/iIzZDZ9z8lmBi7NEj9PU4UYoO7tLC5582T7J0eoX2gg8Zkb2JeOA3n1lhrZ6X3TG66IneWUoYUeSakc1U1C+i8go+nFj3kbYc0ZzZSjpcLYa1g/OXU6HZ/mvxLrwyfzcEyvNADve7Oe70GbRueungIEr9EifCGdEOr19pta+tM4Z82b28z1NQ6zuCAuR//03MtbZBHOdmT15vKC5l0849LrATNou/Wmq1wVmnIu7FCbn+Ba9OmuJkrybURdne3rmk3+Zi6LQ7VrwIjKeCwkV5tSORZq58CY7SbYouIgMAAA3zE1Wc20w+1+e+qJW7zhmNylw5GSmKWnHO3pxUr4gZjq6Sq++8o52errgM5xPPaCNr0/Wgi1pvmsfzW7o1u7SUa8g6Jkmdp+nW7brl7N1kV40T5pLSFH6tVaD/nWdvjyeZQ1ePL1fX77vK1ibMrT39af1wrIt2puaoZyrVViagXe0fTCSc3iTlubpycNYB8vs5iEKbqX+w67e/jrnbIr2bjYOKqbkC9am4mzP62Fs1xde31Sk9fDJa0u07itzubw2zKVspRv7weaVL+qFH2OwBgAAN1QJ1lyjzLmeGmWUHmquAQC4YW6+mmsA7gi8qBhnEAAAlA7CNVDW/KOSTpr3NY/q2SfOq4vV2TgAACgNhGugzKmsNV+YHWenK/SOr7QoNk77lh3VDPtBAABQggjXQBm0eE6knt/YUGcuVHJKAABAaeCERgAAAMAl1FwDAAAALiFcAwAAAC4hXAMAAAAuIVwDAAAALiFcAwAAAC4hXAMAAAAuIVwDAAAALiFcAwAAAC4hXAMAAAAuIVwDAAAALiFcAwAAAC4hXAMAAAAuIVwDAAAALiFcAwAAAC4hXAMAAAAuIVwDAAAALiFcAwAAAC4hXAMAAAAuIVwDAAAALiFcAwAAAC4hXAMAAAAuIVwDAAAALiFcAwAAAC4hXAMAAAAuIVwDAAAALiFcAwAAAC4hXAMAAAAuIVwDAAAALiFcAwAAAC4hXAMAAAAuIVwDAAAALiFcAwAAAC4hXAMAAAAuIVwDAAAALiFcAwAAAC4hXAMAAAAuIVwDAAAALiFcAwAAAC4hXAMAAAAuIVwDAAAALiFcAwAAAC4hXAMAAAAuIVwDAAAALiFcAwAAAC4hXAMAAAAuIVwDAAAALiFcAwAAAC4hXAMAAAAuIVwDAAAALiFcAwAAAC4hXAMAAAAuIVwDAAAALiFcAwAAAC4hXAMAAAAuIVwDAAAALiFcAwAAAC4hXAMAAAAuIVwDAAAALiFcAwAAAC4hXAMAAAAuIVwDAAAALinxcD18wn7tWxanfW/+S/98MUXPNHceAAAAAMqY0qu5rpCuqmEJGv70Uc2IdMoAAACAMqRck7bRPzjDJSq63TmNG/aN2lTL1pn4KN0+1995BAAAACgbSq3mOi6+sga8X1+ZxnDVmhfsQgAAAKAMKd0TGtPLW+EaAAAAKIvoLQQAAABwCeEaAAAAcEnphus0P2WZ94EXFWMVAAAAAGVH6Ybr3ZV0OMO4r3lU40ZkqksNuxgAAAAoC0qtKz6Pel1Oa+ngb1Uv0Dm1MT1SfxgVqsX2GAAAAPCjRZtrAAAAwCWlXHOdqZWv7VSbwBras6aR/rDeT3FmMxEAAACgDCjdmuuW51U/0Lg/UUd/eJdgDQAAgLKldMN1cI4CzPsL5RRnFQAAAABlB22uAQAAAJcQrgEAAACXEK4BAAAAl5RuuA66pIrOIAAAAFDWlFq4jm53Tit7HbbC9ZnUW+xCAAAAoAwp8XA9fMJ+7VsWp6Xjd6tNtWzpYrg2/9XfeRQAAAAoO0qvWcjFIJ05eavWvVJfExOcMgAAAKAMKeUrNAIAAABlF72FAAAAAC4hXAMAAAAuIVwDAAAALiFcAwAAAC4hXAMAAAAuIVwDAAAALiFcAwAAAC4hXAMAAAAuIVwDAAAALiFcAwAAAC4hXAMAAAAuIVwDAAAALiFcAwAAAC4hXAMAAAAuIVwDAAAALiFcAwAAAC4hXAMAAAAuIVwDAAAALiFcAwAAAC4hXAMAAAAuIVwDAAAALiFcAwAAAC4hXAMAAAAuIVwDAAAALiFcAwAAAC4hXAMAAAAuIVwDAAAALiFcAwAAAC4hXAMAAAAuIVwDAAAALiFcAwAAAC4hXAMAAAAuIVwDAAAALiFcAwAAAC4hXAMAAAAuIVwDAAAALiFcAwAAAC4hXAMAAAAuIVwDAAAALiFcAwAAAC4hXAMAAAAuIVwDAAAALiFcAwAAAC4hXAMAAAAuIVwDAAAALiFcAwAAAC4hXAMAAAAuIVwDAAAALiFcAwAAAC4p16Rt9A/OsKvOpn3vDAEAAOBmcXTVPmdICn+wqTMEt1BzDQAAALiEcA0AAAC4hHANAAAAuIRwDQAAALiEcA0AAAC4hHANAAAAuIRwDQAAALiEcA0AAAC4hHANAAAAuIRwDQAAALiEcI0fjT4jU7Vzdqa6OuMAgOs38qmT2j4tWy2ccQDXp1yTttE/OMOuOpv2vTP0H27WB/r6gcbOiMcBvRPZU1OcsRvlttHf6K4GzojHoTVa8OpzzsjNo+ujqXr9/hRVPF9TKybW0MQk5wHgP8x9f3hX/xUhHfygj1540yksrl/N0YKejZwRj4P664MT9H/OGMq6HK1+K0mdqktnPm+gHs/765DzSGmq1Pxetbm1sr7/1wfam3jBKb2CciGqd/ddanBLqvZv+kQpRZik6CqoYp2fqF5kY4VUvUV+5cyyi8q+cFwHt8QpNct6UjEFKeyu7oqofFoHP/m7jp9zikvZ0VX7nCEp/MGmzhDcQs01bn5d0zXfDNZZoVrxG4L1Fd05QmNeWqzY3w91CgD8eNXTXRNiNXXxYj18p1PkOj/1nxGm/9/e2cBFVex9/JeygK6sIEuAvKhLCKaoPBRtFwNuml5fUlPqar5c0BJLMSmTvCKlYgZheG92E03lsUgrLLWLlC89SHFbKdIEFSQ24kVBMGBpUVi0Z+acs7C7LMsKi3lrvp/Pcd3hzJ5z5syZ85v//P8zxS2tkARext6IXrG3mcZuJO4hwvqm6hyU5ghrgo13ADz7AY0X8ywsrEUYOJYI/YCRcB6oFdaUvuQvTWjqkbAmWDligJh8auqh/o2ENaP3YeK6t3lpKkbd4yts6VAKyXcChW/7YvsaYfu8REi902jFhxFXIEE/FB8hwrpQSGYYZ6gPRrk5QMSebIY57H0BS//6mLAduqPaJwZFBtkId7iKrYmw60UK+2Hhv1yhwjV4P/ozkoYI6bcFO7iM9SX/NqLsTCGahVSTDPDF8HvsgF8KcbGkUUi0ENLRGO5miz4tNVCe+gyKIwfwnwxhO3GWlFAPsXeEPf1srO/5bzHuWNgrmHFH83BUHYIcWgGlE9a+02ZCYDAYDIYFKTsuQepZMWBdi1mRGhh6DPYWoqEBGCoBrv2Yh0tm6WRbSP1Gwu4uNcq+P4dmixra+8Jx6FDSkdHg0plsVNWqcdPChnyRvT2syOf1hnqQNxvjdwoT14w7GA1WjvuZfA7Eiff6IYdPZDAYDEYvkJAyiPO3thndgNW3w3otGoph9zqiT0spfrhwVUg0jZVHAO4ZRN4OZXmoqBcSLYYTBt5NP6+goZZLsDj9B3B2azTUm3e9jP9OblNAozumrlyN8DA5ZFIJbGi3rbUZjT8pcGDbRiR9WsHv1oY75q6Px9wp/pA52PBJpvYXggYrD07AotMrsfWZYIxwIV1hiqoCpz7YiMUJJ/nvugyZhlVxz2CavzukEuE4zSooTx/FvoRY7Mvnk/QYMg9rNz1J8njBTsjC5VEcQMqGBGSY9AeOx+EfwiAzJ6BROLfZ8vbjNNeV4NQnb2PTq/9GJZ9kOUIzsHSSlxkBje5wGBePcX/yh5vOvam7pEDuxxvxY7XhvSRYTcOw6c8gcIwXHKyFNANUpxPw/od7hG88nvN/xtdzaoAKDzyxtL8Z4toePotfwpwgH7hSnzaCRl2Nopz3sXtXNpr4JA7pwi14eaoMIqiR+3YkdmfpOr+545HNWzBbRk62JhubliejnEsPxqJ3ohEoysfuv72BhsXrsCBYBqkt90eolJnYlbQDRUbaTOnEZZgz/UH4OIn54d0bLVD9/CNy9r2GQzmGbwjhOHZ8YNnJoCWIXDgeMnt+aFhTr8SRXXHIzOXP2Wf1e4gOEC7YFKWHsDQmVfgiIPZD0JJwTBjpDlc74eZo6qA8m41Du1KNXssfluBYJC4LAPKSkVg6Batn+kDStwXlRxOxKdsdkdHh8HckxXdVgZQXE1Cg508phmxuNMJC/bj7yEHqQO2l75C5ZxtyzhlzvhTq84PD2u8NyaMBqQd9OwY0mgp01NYR00GQ4Vj9wQzSPpkR0MjVmyWYHEDaTsFfQVNfgdzMHdh/MJ+co2UQjQzDnIgpCBzswF1zp2UmJm3/G8sQSHSLpjwT61ftgJ42Co4h904OCVpQ9OEiJB8Q8goBnZdPROHVHDkWLJ4JfxfyjNJjqcn1HN6Bd41dj1iOR5bNQ8honeu/XofyM0ewd0d6xyA14TgqUndWv1WHoGVLMIPkldC8N9Qk30dISTwknLP2PnQFabvemo/d2cJXgf6kvVgwW45RLkKZEZpqipDz7zQc/qzre7Mp6SeE+17HlZPe8H+9N+1vIjgETCbvaqDq2wwoq28I6SYQecDrz4Fw/rUc5/4vFw2WNv3ajcSYYF+IVefwzZeFXddjG3tIvcfCzdUeYmu+sG+2XEfjL2pYifui+tQJVOlZ47sTzNgeXDnIzpZ3+bupgbq+DGUF+ahrNF5uVgOHYvC9vnBxEHN+4zdbyXnVXETpuWKom1lAY29zGyzXIViV/jESlk/kBC8nrClWNrDzCkH48qVCgpYQbDiSgbXziBDXijeKdv/X92PX0+5Coj7SoP1IXz+tXVhTJO544OnXsStC+N5GGLamJSE8xKtdWFNsJJDJw7AipkMG4GEijo+sw1wdwctB84REIGF/KsIt0dsfEoFd6fy56R7HxsELwYuSkP5eBNyEtNtLCHwjM/DXqfJ2YU0h98bBMwSTVuzHgyMM7w3J8/QmTLq/c2HdGeFj+Vap7Jw5VmsfIi5SED2xXVhTRGJnjJoYjYSEcEiFNErt3jik5NEOoBiBC2MQqJNHujAa06mw1hCR8Q+tsNbB9m6EcsdqF9YUiWwyotdHw0P4ziPGqBd2I37xBIzSCmtKX2tInMg5r0jB6oWdNWzWcF2xHQkrJsNHENYUkb0MM1ZswGT9A3WDAMxO2IAFclm7eKOIHCALmIHFi3stguq/G8kUrJxNhTX9Yg2PBx9HZOSTnLCmiBzlmLPYj//CQe7z5t1EjAe0C2sKqQNSDyLo1r6JBaEGnSMiFudsE+qz7r0hebSC6TeDE7K03rQLS4rI3h1Bczdg0+oJ7fW8B4hCY7Epbh6CPNpFYluZxb2JRbplpj6O3UmHoCRqSOQxGcuW6DxT9HzJ+4S+FVR5O7FNK6x1EA+P5o4V6CYIay7RHYFzY7F8tsG98Sbi918xmK3TsaCIbMlzI5+HV16PwSiDLG3YPojoN0nZkbycsKb0FcMjgPzm6p4/b6LZryGetBf+NO5Cp570J23NIxGkEy18N8Xab+24z7t9r+Ex7n+9g9XgAHi7iKCpzEWpOcKaivHR/nAWaVB1Ns8ywvouItanzsaftBsV1jRdMhL366aTzc+bLxctVk4BGDN+PIYPcWwT1pQ+1rYYOIimNeKaoZvLLQcz6gdXtsXS9BFBPMgLI4Lvx0AhqR0R7Pz+gvvGBcB9EC+sKX2syHm5jiadh0AM1OowRq/R6+I6OGkdEUm0WWtGrSINcfOJyLjHF5PmR+GfH5xBpUHleyB5HWYNp8JNBeXBBCweTwMBJ2BxQjou1JBkKykeWET24fbWx8ZJSvqF7fkmzd+OU5wBXYKxU1dy+7SxMgwPkR4zVOexb204JnEBh+Q4UVvx8bcVUHWIqpAjYW0YZNyplSCDiDUuz/hwJH1wHrX0QXeSIzwujNu7+7hj1baVeMCBRkH/G/9cMosPhiTHidurQC05Lzv5YpBTue3YTFqH0KH8vSn7IgF71tFgyAnYk5qOYlrOfaQY8+g6kFNvR/4cHvIkeVpqUXAoFju5AMpZSDtEroWLulbh+92+HazWNJBx1GAaAm6P4q+69rX2WBGNGUOtoanJw/4tUYjiArQiELsjE0rSiImGTsaCJ3TfeGoUJKaCMxqL/bBgTRgvCLyXIJKIZhHqkPtOHDKLaaIhzpCRYzVVkWNtjiDHmY/Ve/LIlRBIHQjTPc7EGCwKpCXSgst5adj0LB889vzmVGSV0wKwhmxiBAy1FQ95uQc5Q9SoROaOF/A8yRe1IQ0F9JkRyRA4me/IFCXOFwLSyJYhhKRRK7U2TbsZWq2nzkCQE/lszNcpM3ItL7+FA2cr0GAJ86PzVux97ksc6GLbGzpHyEDoRp6HQjON7qO/ZWKts5ChB0i8fSCtz8O2RW8hl94LOx/4k46OMuMlxGZVc/tI3QK4T4pk8XLMoJ01UueUR9/C6kVCOb99CAV0ZKCvA4KeWK7XKfNZFo5QJ5LnejVyP0wQ8pB6syYBWVXCTr8JYoSueZqzEDcpM5GyhtZ/cm6LopD4YR4ukzojCXgSc9ovv3uIw7D8qQDScvNlFis8N1HPJ2B/XjU0pJUJNCgzFKdie6aSsza6jo8WzoF0bleE8xZt8kwkJh43ao2UeMgguaFGkfb+PBuPzFL++fQZr3scd8x4ZgZktFOtJs/l28JzQ65/2+Ei1FKNSDtXS4wXgGSkHD5ivi1IfJ4+txFIzqbXQ/82AYHcXqlI5J5FuiXzdYyzUmvTtJuh1dod04N90J+2NdntZbb02ReQvPc4iuo15vn4ftqPn4rP+TqCuIRewMoFniPdYKWpxA/nqnBTSDZFH2d/3EPEeGvVaZSZJcbNYIAEA4T/doW6UUes2PlixP1DIb7rBtTluTh99CAf8HjkIL75rhzc5CV1V8ldM+BWgxkHeMGTC66swsUvD7cHV35+GKfzzqH6l4612cY7GCM9xbhxtRjndPMczULpL2QHaw846lqaGL1CL4vrCPztYV4AVGauQOj8jfhYwbsNVCqOYcfaOZgUpuuCMA1/kwv7H3wR01ftwSnOzaICp3bG4vEX06HkRKw/phoxLFOhdiphVlu+SsVWxJ3kj2djZ1Cb+luDt722oOa8QnCzIMfJ3I64ORMwabGB2JsZgQeoVbq1AhmrpiJmp5DnJwVS185CzEF+tg2p/zT0aBK0cSvxyAhyZlVHETNlFXZ8cZ5PJ8f5eEM4Yr6g1yPFvROn8em3jWkY4yfcm2Mv4sixPWjmWuoKNBfF4kRKOirpdwd/jPSm6QK2NqB9+qai9/CVIh18k3gejYpwfF1EezASIkS4RAM0uJsbgLDCldNcggkmY8pYopquE5EYE4+s3ArhBVqP2hM7kHggH01UxI6ezKW2k413tdYu78cRPW8C5jw3GR5EZavy3se7eq4i+qjOpeLV58ixzlB1robqs3jsyqP7W8PDt90+FMq97Mj+Z3bi1cR0lAtuFk1nDmH/KkGciXwQaGgdE6DHiX3qBRw6oeTcWjTn0nHsIn9eYvuuB45NYttuDW8o0ZYZuZbC4zi2KQqbkg3GmxkCapw+nIwC9XFcFu6npjQT2/cScdXBHOWHKf70uWlB+WcbkbjrOFTcLqScs1KxbTNf/+Doh0faDJdhmDKa1gciqHYtxe4DCiEPFbQKNFh02rFbxGMegryJ6K86jlfX7MBppeDSpK6A8kA8JxRJIwCfIF3L/a0jmRMCH1I5L2fxZVarLedKBbISyXNHOxiOwxA0mk/XokrTjkg5I3RJDEbNXofIsaQsNUoceSdV31VEF00Fjm2NRLL2/lzNw6ENpGNO/0aOE6hV16Mfx/20vSL7H9pMnsss4bkh11+Q9hISP+PFvXTkZBgdj6LH2bII60lboKykB6pH0VsKfnTMVgxh8KObtFurW0mnrEHr0nVViaKMt5Ac+RKOCUkmUYtQzlkKWuA5jkuxOHYjAuFCqlHthTzU8Q2Pae5ygudoD4h+rULJ2XLLBQI2nsP32plAMjJwkYb4kOeuNFub1r4p2zq1tpCOogGV1AB2At+T87mmEcT+rzeguasP2cN4wOItBzMOsAdnL2+sRL1K0x5c2arBtapClJzMQ4OQxEFnURlujxuXFTitOIsGbR6RLWzEgzCAGwRT47qujySjV+hdcT1TDi8qkJrOICPKiM9zB+Rwp5a01vM4tsrI/l/F4gzX2kngZKzlKjmKxTv1fX4rz1VAp7/ZTtqnvFVbMhYrPvoeWZ+kYO3SEIzg/9oROgRKP4uPEYHLpehx6qXTfEMscTLDV84EwTLe5cNlIv71QyEKDLZdgrVS6jqS+7x9yOFMW35ybwq+MHJvGmJRyBW9BA66Yvl6Myeo+/vMxzh5GCe0gXthJ0/Fgz5C98aUWFCJYNR4rMtoX3hQLWLrhwW7P8H2Dwy2hX6cwBXZexi4bBCKU5G8TxDf05chlNQ/UxYuHjUKs7T+ke0UVfJWy/5ire0+GDL6BkE1vssw9nvZyLnADa1A6mLM0tXJcQRL9erEHorfz47jNNVGdn6IfPM9vLw+GqHjZVxZWYzqlVj4j4cwu4ttYdZ+IQOhG3m+zJpsdB/9bTI28beoZzQWIidDV0S3oCA7lR+56EAAPGmbpvkROXvafRzbKE/FaU5ZiSEdyqWQauMLV9rrqc9Hzp3WvwmUgQ74wWUC4g2fM7IljueHBgbe3TMfzv8ZxkWVwTX0tQ7H2P7Bm3iEOwkHuOp25DnoiFQCjlEhZC/H8id8uhiFEqjMwwEhhqENdSEuc32HARg4jEsBxvLvAU3pSaO/p9qbzwtlOwfj7wFjx2mzVL/Qw4V78nE8l4p70sGfuAFvpLyJRYtnQOZmvOPeNUSVcWLMwtiPxj2eItz8+Qx+LDdHWQP9RgRgMDmXuvN5uGpelm5gDwnXdNfjGrXwdsaAoXAdRD6vFeOH4o7qws6Rr7vGAhYHDLzFYMbaUlTRARTHANwXIofLYEeITLh02A0bzolxkascgbpuLROnIoD0RKWkDK9X5uOK8caKYUF6V1w72PDW4dbrnbx4DIhwB30PoUnVqYVB+bOFasVPe7A4bCP2fVuBZnKWUr8QzF2Vgo8KqdBOwlwDw0s4p/rJe7XhCvfZkRLUWOLUdP2/7yS83fke9DWV8c4Koa7OSAEo/oGvqei2lmLUjHg8vbkQSzd/jHkz5NyD3lyWji8V/K7dxl7co3eAJuMNZJYKX4gQztlrwsJlivI6g3oug5QrNDUaznIJHSiq4cX1bwL1U30+gXMBaSLiztU3GHOWbMEb71OhvQQ+PTOj/a7Rf79roOnsoQgWOuXXf8FlLqEjZXWGYkugvhpG5Phvi1jUNtrRm/QT9eSJLsKBDxVtz6Km8IjJUajOUaBWMMxr8XHhOw/XVJ29B5So7awu3AZq976A9buoCwg1JrgjcGI4Vr/xHt4kQnvBTL/bcu9McpcdBo/xRr9f61GaX2LCgKFDNxaY6RZie4ipB6KqHr+YmObBSurCvQvVFT92dO24ywWOfM8Yaj2TMsWRHoJg7G+d0FoF5Ve5qPiZXPcAN8j8Q3H/pJnwf3AsHPoJ+7ThSDq1xu9wa/N1NNQU4+JXGfjuTKXlLP+MTul1n+tb4otavkHsL9ELPtNFNkgnWLGn/JSGTXMmIMB3Fp5NSkN2fq0gtKdh7e5UPfeOY1V8U23Hz9NjBC84WfDUUJLO+1p3tj2aIOx4m/ixlhfV/SS8yDaCg4ORAnCcTXU5musqyEun3ZH9hroWxV9txQdvx+rN4tEBiQYdjFOd0ZiH5DZ/RCNb26wf+kgXrsN0ajXU0JkYnBG6IrbzgCQTiLycwZVAmwMhvWb6KcZAg+FrLT5Oeh7qtx+1gnMBef5J6p+ehqzCakFoT0b0qzHGh7Zvhd+hz/UtkXeFH7a1HQBXLqEjng6dVDaxQ8eRlm5i8SBIYz79OltUbLqwY8+gs5sY+31++yuSDwg76kIDGBfyM4NoiHoT+T6O6E6Dhk0xAa5cB5P8DhcfQs5H6Az3k3T2HtB2qH87ao9SFxDeP3330TxQzx0+2DQW0fP4kU/zIEpTuG5LYeMVCM8BpKn+IRdVpqzDbXRjgZnuMpB3wWitv2pS9Pe15qPYG1Ude1E23qMxmOpbYwGLVnboT7P+2ohrt9LXu1aOsq8zoMg8jNOnzqKiTgMbGsw4zjAw0RbcqWlKkW/g0pJ7PAPncs+i9jf1Kftj0bvies8FVNAuksQfj6w046H+iYgRqrSs7sUDcUb2fzgJD3BjbbWo6Km1U4/zyN6+Ec8+Ng4Bj+/BBXoODvfiIR2/7soKKrwJ3g9grZEZQYKT5PwwYE0FTnEp3URByoB+DrnX6HF+M1or0Ei76eTeDP+TkXvjmARfLrkW1TrmNrdJIUSuqlD86QSkvzqmbUXInfHjcCJjuwlhbSUMXZnh95ddyAVSwU6GwFsMpKIzEqzmpuSrxrH1cThCg5jsAxCpDXA0Gx9MGMm/cGsv53GfQCEauEbUGaPGGzkxIgKCRgjBjiUWHv+ns0oI/zUP6p+ejv0vL8XzUWkooG2wvR+C2IQhPUNdzS/NLBoGf72AWgHvJYI/bzURD1wKuRVqXtPYO8PLIIv0idfwiNZ9pBNEffUz0Tq+kPodW4IzQvvk5ttJEK5lKBBcrDyGz7vl53BynBBwee59xLxDA42tIZuqDXA0H1GoHL5UbWmuoFx432iu1HFtlmjofUavXxoRwHeIyHuggEuxILf4tqb+6bm74pEYOR+vcL7wNO7EnPlCbgjxLtYo+4pLsAyCP3AfuqqiEXcKY9jcE8gtMNNY/LWZC8x0n372/FBdo27gohFsuek+SNfD4H5YucgxWjujSLPwDOtia8uP5KtVfMDjrXJTg2u1xSj7z1H8QL1KrO3Rj9f5Hel6DgBGL9PLlus0fFlAJakNxiz9GIeTlmKCELAIvxAs2bQfn6fH8985tuLYWd5CPOLJ/UiLC+ODCEGn00si+afBjfbUSrLwvwdpevcJTz2OrCOp2LB0GoLbXEDuRXCQGyTaEUndgOStn+MMPTUiLufu34+1f5XzvtFD5AhPykDCTP66lCf3IIP7Xzc5eAznuVlRyHE+ycDWVdoyMJNJKXjyUCGeO1qIiDfWWdB/disKCvl7M2zqfoTKw4RpFd1h45OEKc/w9+ZGWRa+1xn/thtImxMJPAPWQeo6DXak02IeIpRV0wOo4OHf1VTsmTjNRfY7ICh6OyLnTYDUHJcGIm4XzKczEtBgs2QcKC5C5juZ7QGOnVq7RBg4VN52jP6yCZixeR1meJCKo1Hi5CfaCdIrcCxPCHCSr8baZ9rPq//YMCxKICKAtsWN+ThizALXHa6q+Q6LRzCiF0+AxIQA8nlhO+I3x+KR8X465WUP6VgPOHKWznaLXbf5Pfpc3xKHkMXNx2wNn5lvInK2XLgnYkhCl2D1Gj6AVlOqwBGt69DZbH5+cZEPZsctgQe9N44BCF29HS/P5gNkjXFVzd8sD3k0N6UcvZc+i7cg4Rlaxy0EObcC2j6Rc5vz5hbMnqq9HjMxs30qzyniRLzIOwwJm5chMNDdLJEtjViOKUPJc9iYh91bDqEpKxl72wIcTYxI2TnD31c4htgdstmx+Ds3WwlpgU4fQRZNp2QcF2brIdf/+gaEas+L5BlFyvrvf6HfW6DM/cjoKNmtoxQ66GL4h8UidCzvs2uccES/Q+rYMzPgo70WgsjND76OwpwY5kzLMfM6vzrjpX74hEuwBN1YVdHWCzIqxjvxbbYsfdF/ABeGiMZ609K3ScX7Cjm5e/FT4/WxhZ13MEb/jxv6tggzshCB3qmV3coWVoLy6mMthniwL7zGheJuvWlL7HB3YCg8hzmhn840f7irL0TS4cIoeQuNa9RBhSY6GiAaCtkYD/Sz+HAV41bo/UVkuDmbY7ip5YxC3R8m6cwY0tX+dOq8VbOwSTeoUFhEpsNvUSJS8fVaOewM/hb+Xi5WyTt/5TRfTMezU2L1rNBuT6ciPYb8lvDdkMYLaYh5dCN0bZAbPi/ELHJqplCm+2L6S8IXgtvTKUhbGQJpp+7XnS9C47OtEH8ZLnwhr6fcuHH42qiVPx6Pbg7rYr7sEmStmYpC4RusIjBuVQxGdZxYk0d9HifenoVinVgNm3EZeHKqF99jNwJdGOeb9BdRoBRmRdHB86mr+HomecWas4iM9zxErwmDT6cvesMFF+i82Bv46fsMFp1oX2CmDrlvR+ksMKNd3EX42oE6nE5LQMphXU/Z9uMYRVONrHdewH49n1DtcYwvEmGaYCxIiUaQsXcwHcrXmY6vq8VnmpSH8MqazgL1/oAIi8hIqPvRU/GcPzS/cIvOfRIWC9Era25eaH6BE6Ooi7B/80vI0gmQk8zbgk3TaR00gOybU+qOoJFGFoRpWyjFEDWUpPMpG+rQIY924RlTGOYRhUYT4RnMB10apfNFaMxvn+gUelsQSaeiFFI6YFCfuXmxuY4EuR+6C0PplD8NVl5P8mif9bb71QmayuNIXvcWN52nlvbjGKepOB2vxqa1H4NirF6YSad1oUOb1sXiMzfqkLN9Ed7toj1ZsbECMf5qiy4iY+URhPtGu+BGWTa+yae9s64QwTFwOnycNLh06jBK9QqzN3DC0InBGCyqxIUjCtSZUkUDfOEXQjoKwtc2WipxrvAmRoz2QMuPWfjuvEHQopUHhk8MhNSoVbkRypNHdVxl7OASMhEyE/MENl48inyDTge1nvsHuHX+zFxW4D/f8XOjsUVkepdetlwTuMDBVdhx9DxqdSePblWhNv8odmzbLiQICPunniyBjosuUWEqzioc85iBsO4mqQmJHc+JwK2C+MFGzDcQ1pTKneEIi96D7BKVMA0dD82TvXsVwgyEdXep3BmJ0KitOJ5fq18GZlD06UnUCFEWqoLP8b0l3Wda9+CrpFX4/JsS1OlYNG+0qFD5zR6kvaYvrCnNF7JRJjz/N1qa0XxN/4LowjjjSKdlXIfFZ4CyfQNQQI/jXo/nHubTOqU4DclRCTiQV8EPw5uEvLhXx/CCl07RlaK/mlvt3h28ewidS3dudNf+13TVuHIF3t0QZSCsKUXIjIlE8tEiXG7UKTSNGpcLM5H83FIDYd1TsvHu35ORWVgNlSnHQULRrmQiQPjz0t2VW2nvcDJimbC2DFzgaBzepS5fOnWTruinVKThlSh9YU2hU8pt2peHcm3VuCHUlxfJvvWdOKtmJyAxTScPga7Ml/nP5Ug8Z7nAWU1WMtav34FjZtQxQ8xvn9Qo+OdSLjivoEYN7UxnneIdjmitpTkvVT+AkZT/u6QsaV2m890vMsP/WtNYjYKjyYh5Xl9YUzRZ8Vi7IQ055XV650Wfm5x9cYgxFNY9hK8LCijr9Z/TjnyE7W8fQi45rya9B5rWneNI2RTVpbDGkGuYNZJesCNyPrSQPBB5YMgIF/RpKcdFbrGKrqELzHjRmZsqc1HW68KaIHaEHVWkv9SjqStz4y+FuPBtCRpa+Jt/s1WNup9ykXdCgYYbfThRpTE2BVZrOZR57fkorc2NqKs8hws52QY+6I2o+pbc88v1uK6zP11lUf1zCReYaCisKa1V/BR81Q3X0dorZlOGudym5c8Zf0xCMGZlCh50Ji8II8ub93Vfh9CF80Dd1G4U78HO3R2DNOe+WI2kkHrS6fLEgmX9YIF+VQ/oiUWZwWDccfTAovx7JPKVS4i7rxHNp2WQrevU/nkL9MXAsVMx0g2oPp2Jkktm9MasXCD7cxBc7qrEhf9TmDcPdk8ZLMef/N1wszIHijO/6SpNtw1mue5det9yzfjjMnA2ZNzsDLUoPGG4AiMR1BUbUVhm2jS/71+DkENNTkNqEPcU64ozGAxGb+A5QYWVRFijxQmpr1lCWBOkYzHcTYSbNWfxkznCmnDLC8z0GNIBcOGD0X+uMc+yzmB0BRPXjNuAFL6PxsPZSS58J9iFwXNqBsaP5L2xywrTuM8OqEVYtdsVKlyD98wqfGhOsDuDwWAwzMf3GvY+exkSiJG3dxA2GLjCdJvaPHyTcQCK3FKz51ZuzD/MTR930cwFZnqElRh23kEYTgMIWkpx+VJX/kcMhnkwcc3oPRreR4GSt0xLfMLw2POpWMotIkO2v8djyjgvbraA5tJ0fPkf/ZU1dSk7LsGyg1I0E4kd9OxVJN1JUxQyGAzGfzWt+HDtJXhbW0GV64zlPZyJ67+BgWOFlQsn/QV+w50g+vU6qvLPopENjjIsBBPXjF5EgeKdc5GeqUBlXTNu6E4D1dqMpprzyH1/FfakdLGQDOGLdxyRcHIQys5KkPqTkMhgMBiMHmKFE8ViXMn1xKQNIpQJqb9fbCESVjekAYINNcW4cPIzKKtuiw8K4w8CC2hkMBgMBoPB+APBAhp7F2a5ZjAYDAaDwWAwLAQT1wwGg8FgMBgMhoVg4prBYDAYDAaDwbAQTFwzGAwGg8FgMBgWgolrBoPBYDAYDAbDQjBxzWAwGAwGg8FgWAgmrhkMBoPBYDAYDAvRa/NcMxgMBoPBYDAYfzSY5ZrBYDAYDAaDwbAQTFwzGAwGg8FgMBgWgolrBoPBYDAYDAbDQjBxzWAwGAwGg8FgWAgmrhkMBoPBYDAYDAvBxDWDwWAwGAwGg2EhmLhmMBgMBoPBYDAsBBPXDAaDwWAwGAyGhWDimsFgMBgMBoPBsBBMXDMYDAaDwWAwGBYB+H/vy/ZxA/iYzQAAAABJRU5ErkJggg==;" vertex="1" parent="1">
                    <mxGeometry x="290" y="340" width="307" height="285.04" as="geometry"/>
                </mxCell>
                <mxCell id="17" style="edgeStyle=none;html=1;fontSize=16;" edge="1" parent="1" source="3" target="6">
                    <mxGeometry relative="1" as="geometry"/>
                </mxCell>
                <mxCell id="3" value="exports" style="rounded=1;whiteSpace=wrap;html=1;" vertex="1" parent="1">
                    <mxGeometry x="660" y="661.26" width="100" height="40" as="geometry"/>
                </mxCell>
                <mxCell id="16" style="edgeStyle=none;html=1;entryX=0.5;entryY=1;entryDx=0;entryDy=0;fontSize=16;strokeColor=#FF1F17;" edge="1" parent="1" source="4" target="6">
                    <mxGeometry relative="1" as="geometry"/>
                </mxCell>
                <mxCell id="21" style="edgeStyle=none;html=1;entryX=0.377;entryY=0.996;entryDx=0;entryDy=0;entryPerimeter=0;fontSize=16;" edge="1" parent="1" source="4" target="19">
                    <mxGeometry relative="1" as="geometry"/>
                </mxCell>
                <mxCell id="4" value="module.exports" style="rounded=1;whiteSpace=wrap;html=1;" vertex="1" parent="1">
                    <mxGeometry x="810" y="661.26" width="100" height="40" as="geometry"/>
                </mxCell>
                <mxCell id="6" value="" style="whiteSpace=wrap;html=1;aspect=fixed;align=center;" vertex="1" parent="1">
                    <mxGeometry x="690" y="391.26" width="182.52" height="182.52" as="geometry"/>
                </mxCell>
                <mxCell id="7" value="&lt;h1&gt;&lt;span style=&quot;font-weight: normal ; font-size: 16px&quot;&gt;say: function,&lt;/span&gt;&lt;/h1&gt;" style="text;html=1;strokeColor=none;fillColor=none;spacing=5;spacingTop=-20;whiteSpace=wrap;overflow=hidden;rounded=0;" vertex="1" parent="1">
                    <mxGeometry x="699.39" y="421.26" width="163.74" height="30" as="geometry"/>
                </mxCell>
                <mxCell id="10" style="edgeStyle=none;html=1;fontSize=16;entryX=0;entryY=0.75;entryDx=0;entryDy=0;" edge="1" parent="1" source="9" target="7">
                    <mxGeometry relative="1" as="geometry"/>
                </mxCell>
                <mxCell id="9" value="" style="rounded=0;whiteSpace=wrap;html=1;fontSize=16;fillColor=none;strokeColor=#FF1F17;" vertex="1" parent="1">
                    <mxGeometry x="290" y="340" width="240" height="60" as="geometry"/>
                </mxCell>
                <mxCell id="12" style="edgeStyle=none;html=1;fontSize=16;" edge="1" parent="1" source="11" target="14">
                    <mxGeometry relative="1" as="geometry"/>
                </mxCell>
                <mxCell id="11" value="" style="rounded=0;whiteSpace=wrap;html=1;fontSize=16;fillColor=none;strokeColor=#FF1F17;" vertex="1" parent="1">
                    <mxGeometry x="290" y="406.26" width="240" height="75" as="geometry"/>
                </mxCell>
                <mxCell id="14" value="&lt;h1&gt;&lt;span style=&quot;font-size: 16px ; font-weight: 400&quot;&gt;student: object&lt;/span&gt;&lt;/h1&gt;" style="text;html=1;strokeColor=none;fillColor=none;spacing=5;spacingTop=-20;whiteSpace=wrap;overflow=hidden;rounded=0;" vertex="1" parent="1">
                    <mxGeometry x="699.39" y="467.52" width="163.74" height="30" as="geometry"/>
                </mxCell>
                <mxCell id="15" value="对象1" style="text;html=1;align=center;verticalAlign=middle;resizable=0;points=[];autosize=1;strokeColor=none;fillColor=none;fontSize=16;" vertex="1" parent="1">
                    <mxGeometry x="741.87" y="360" width="60" height="20" as="geometry"/>
                </mxCell>
                <mxCell id="19" value="" style="whiteSpace=wrap;html=1;aspect=fixed;fontSize=16;strokeColor=#FFFFFF;" vertex="1" parent="1">
                    <mxGeometry x="920" y="391.26" width="180" height="180" as="geometry"/>
                </mxCell>
                <mxCell id="20" value="对象2" style="text;html=1;align=center;verticalAlign=middle;resizable=0;points=[];autosize=1;strokeColor=none;fillColor=none;fontSize=16;" vertex="1" parent="1">
                    <mxGeometry x="970" y="360" width="60" height="20" as="geometry"/>
                </mxCell>
                <mxCell id="22" value="默认指向" style="text;html=1;align=center;verticalAlign=middle;resizable=0;points=[];autosize=1;strokeColor=none;fillColor=none;fontSize=16;" vertex="1" parent="1">
                    <mxGeometry x="801.87" y="586.26" width="80" height="20" as="geometry"/>
                </mxCell>
                <mxCell id="23" value="手动改变" style="text;html=1;align=center;verticalAlign=middle;resizable=0;points=[];autosize=1;strokeColor=none;fillColor=none;fontSize=16;" vertex="1" parent="1">
                    <mxGeometry x="930" y="611.26" width="80" height="20" as="geometry"/>
                </mxCell>
                <mxCell id="25" style="edgeStyle=none;html=1;fontSize=16;" edge="1" parent="1" source="24" target="19">
                    <mxGeometry relative="1" as="geometry"/>
                </mxCell>
                <mxCell id="24" value="" style="rounded=0;whiteSpace=wrap;html=1;fontSize=16;fillColor=none;strokeColor=#FF1F17;" vertex="1" parent="1">
                    <mxGeometry x="300" y="521.26" width="240" height="75" as="geometry"/>
                </mxCell>
                <mxCell id="28" value="1" style="ellipse;whiteSpace=wrap;html=1;aspect=fixed;fontSize=16;fillColor=none;strokeColor=#FF1F17;" vertex="1" parent="1">
                    <mxGeometry x="620" y="401.26" width="20" height="20" as="geometry"/>
                </mxCell>
                <mxCell id="29" value="2" style="ellipse;whiteSpace=wrap;html=1;aspect=fixed;fontSize=16;fillColor=none;strokeColor=#FF1F17;" vertex="1" parent="1">
                    <mxGeometry x="620" y="447.52" width="20" height="20" as="geometry"/>
                </mxCell>
                <mxCell id="31" value="3" style="ellipse;whiteSpace=wrap;html=1;aspect=fixed;fontSize=16;fillColor=none;strokeColor=#FF1F17;" vertex="1" parent="1">
                    <mxGeometry x="620" y="510" width="20" height="20" as="geometry"/>
                </mxCell>
                <mxCell id="32" value="4" style="ellipse;whiteSpace=wrap;html=1;aspect=fixed;fontSize=16;fillColor=none;strokeColor=#FF1F17;" vertex="1" parent="1">
                    <mxGeometry x="920" y="591.26" width="20" height="20" as="geometry"/>
                </mxCell>
            </root>
        </mxGraphModel>
    </diagram>
</mxfile>